<svg xmlns="http://www.w3.org/2000/svg" xmlns:xlink="http://www.w3.org/1999/xlink" id="svg" width="1000" height="1000" version="1.1" viewBox="0 0 400 400"><g id="svgg"><path id="path0" fill="#fcfcfc" fill-rule="evenodd" stroke="none" d="M278.222 27.165 C 278.074 27.404,277.460 27.600,276.857 27.600 C 275.744 27.600,272.953 29.728,270.829 32.196 C 270.263 32.854,268.918 34.204,267.840 35.196 C 266.762 36.188,265.592 37.349,265.240 37.776 C 264.888 38.203,262.732 40.363,260.450 42.576 C 258.167 44.789,256.097 46.839,255.850 47.131 C 255.602 47.423,254.884 48.143,254.253 48.731 C 253.622 49.319,251.192 51.759,248.853 54.154 C 246.514 56.549,243.304 59.834,241.719 61.454 C 240.135 63.074,238.690 64.400,238.508 64.400 C 238.326 64.400,237.193 65.567,235.989 66.993 C 234.785 68.419,233.678 69.589,233.530 69.593 C 233.101 69.604,229.200 73.575,229.200 74.001 C 229.200 74.212,228.750 74.498,228.200 74.636 C 227.650 74.774,227.178 75.047,227.150 75.243 C 227.123 75.440,227.074 75.735,227.043 75.900 C 226.922 76.539,218.889 84.318,218.088 84.572 C 217.622 84.720,217.323 85.057,217.423 85.320 C 217.523 85.584,216.315 86.970,214.740 88.400 C 213.164 89.830,210.868 92.049,209.638 93.332 C 202.534 100.735,200.442 102.800,200.044 102.800 C 199.800 102.800,199.600 102.969,199.600 103.175 C 199.600 103.380,197.949 105.135,195.931 107.075 C 193.914 109.014,191.439 111.463,190.431 112.519 C 188.425 114.621,180.722 122.360,179.999 123.000 C 179.750 123.220,178.254 124.752,176.673 126.403 C 175.093 128.055,173.283 129.765,172.651 130.203 C 171.178 131.225,169.600 132.876,169.600 133.396 C 169.600 133.618,167.684 135.600,165.342 137.800 C 163.000 140.000,160.345 142.573,159.442 143.518 C 154.288 148.911,152.267 150.800,151.650 150.800 C 151.461 150.800,150.858 151.475,150.310 152.300 C 149.321 153.790,143.551 160.000,143.155 160.000 C 143.042 160.000,140.508 162.430,137.524 165.400 C 134.540 168.370,131.897 170.800,131.649 170.800 C 131.402 170.800,131.200 170.966,131.200 171.169 C 131.200 171.639,127.993 175.199,125.430 177.574 C 122.903 179.917,122.411 180.410,118.795 184.228 C 117.142 185.972,114.752 188.345,113.483 189.500 C 110.991 191.768,109.081 194.284,109.427 194.843 C 109.545 195.034,109.341 195.825,108.974 196.599 C 108.442 197.720,108.396 198.230,108.749 199.103 C 108.992 199.706,109.231 200.773,109.279 201.472 C 109.327 202.172,109.509 202.656,109.683 202.549 C 109.857 202.441,110.000 202.555,110.000 202.803 C 110.000 203.050,114.455 207.723,119.900 213.187 C 125.345 218.651,131.290 224.625,133.112 226.461 C 134.934 228.297,137.319 230.663,138.412 231.717 C 140.203 233.444,140.826 234.400,140.160 234.400 C 140.029 234.400,139.076 233.545,138.043 232.500 C 135.748 230.177,134.256 228.956,135.200 230.173 C 136.895 232.358,140.117 235.258,140.379 234.834 C 140.745 234.241,142.000 234.712,142.000 235.443 C 142.000 235.749,142.139 236.000,142.310 236.000 C 143.154 236.000,152.733 246.074,152.098 246.294 C 151.821 246.390,151.709 246.652,151.848 246.877 C 152.010 247.140,152.210 247.107,152.409 246.786 C 152.740 246.251,153.731 247.093,159.636 252.924 C 162.779 256.027,163.182 256.606,162.385 256.872 C 162.156 256.948,162.610 257.709,163.393 258.564 C 164.175 259.418,164.904 260.030,165.011 259.922 C 165.119 259.814,164.650 259.143,163.969 258.431 C 163.288 257.718,162.821 257.045,162.931 256.935 C 163.209 256.658,164.800 257.548,164.800 257.981 C 164.800 258.445,168.723 262.344,168.956 262.111 C 169.054 262.012,169.359 262.352,169.633 262.866 C 169.906 263.380,170.686 264.295,171.365 264.900 C 172.384 265.808,172.497 266.067,172.012 266.379 C 171.688 266.586,171.563 266.896,171.733 267.067 C 171.904 267.237,172.206 267.114,172.405 266.792 C 172.803 266.149,172.459 265.850,180.700 274.002 C 183.175 276.450,185.200 278.609,185.200 278.800 C 185.200 278.990,185.571 279.264,186.024 279.408 C 186.478 279.552,187.038 280.084,187.268 280.591 C 187.499 281.097,188.129 281.712,188.667 281.958 C 189.205 282.203,189.578 282.538,189.497 282.702 C 189.319 283.059,191.067 284.800,191.335 284.532 C 191.437 284.429,191.854 284.820,192.261 285.400 C 192.667 285.980,193.445 286.924,193.989 287.498 C 194.612 288.156,194.802 288.599,194.503 288.699 C 194.139 288.820,194.141 289.036,194.511 289.629 C 195.158 290.666,195.720 290.610,195.382 289.542 C 195.041 288.469,195.636 288.908,198.363 291.740 C 198.606 291.993,200.244 293.612,202.003 295.339 C 203.761 297.065,205.200 298.611,205.200 298.774 C 205.200 298.938,205.650 299.277,206.201 299.528 C 206.751 299.778,207.561 300.572,207.999 301.292 C 208.438 302.011,208.798 302.469,208.799 302.309 C 208.799 302.148,209.790 303.023,211.000 304.253 C 213.163 306.451,213.615 307.200,212.776 307.200 C 212.543 307.200,212.476 307.399,212.626 307.643 C 212.820 307.956,212.992 307.937,213.214 307.578 C 213.456 307.185,213.686 307.229,214.229 307.771 C 214.808 308.351,214.834 308.532,214.377 308.814 C 213.943 309.082,214.076 309.372,214.995 310.162 C 215.639 310.715,216.247 311.086,216.347 310.986 C 216.447 310.887,216.111 310.443,215.600 310.000 C 214.282 308.857,214.894 308.550,216.349 309.626 C 217.680 310.610,218.285 311.705,217.620 311.927 C 217.386 312.005,217.309 312.252,217.448 312.477 C 217.611 312.742,217.805 312.716,217.999 312.401 C 218.405 311.745,219.859 312.525,220.193 313.579 C 220.330 314.008,220.792 314.470,221.221 314.607 C 222.275 314.941,223.055 316.395,222.399 316.801 C 222.084 316.995,222.058 317.189,222.323 317.352 C 222.548 317.491,222.795 317.414,222.873 317.180 C 223.072 316.585,224.400 317.163,224.400 317.843 C 224.400 318.149,224.551 318.400,224.736 318.400 C 225.124 318.400,230.000 322.898,230.000 323.256 C 230.000 323.630,234.429 328.000,234.808 328.000 C 234.994 328.000,235.260 328.360,235.400 328.800 C 235.540 329.240,235.816 329.600,236.013 329.600 C 236.552 329.600,238.800 331.901,238.800 332.453 C 238.800 332.717,238.905 332.828,239.034 332.700 C 239.367 332.366,240.802 333.674,240.550 334.081 C 240.435 334.267,240.489 334.374,240.670 334.317 C 241.153 334.167,242.800 335.692,242.800 336.289 C 242.800 336.570,242.944 336.800,243.119 336.800 C 243.521 336.800,246.799 339.928,246.803 340.315 C 246.804 340.472,247.424 341.021,248.181 341.536 C 248.937 342.051,249.863 342.942,250.238 343.515 C 250.614 344.088,252.175 345.737,253.708 347.178 C 255.241 348.620,260.370 353.625,265.106 358.300 C 269.842 362.975,273.843 366.800,273.997 366.800 C 274.150 366.800,274.576 367.132,274.944 367.538 C 275.849 368.538,279.697 369.390,280.754 368.824 C 281.191 368.591,281.987 368.400,282.525 368.400 C 283.062 368.400,283.742 368.111,284.035 367.758 C 284.327 367.405,284.984 366.958,285.494 366.764 C 286.003 366.571,286.533 366.094,286.670 365.706 C 286.807 365.318,287.297 364.580,287.760 364.068 C 289.044 362.643,289.003 356.493,287.700 355.106 C 287.205 354.580,286.800 354.012,286.800 353.846 C 286.800 353.679,285.887 352.701,284.771 351.672 C 283.655 350.642,279.708 346.740,275.999 343.000 C 264.914 331.821,263.481 330.386,258.946 325.928 C 256.556 323.579,252.046 319.079,248.925 315.928 C 245.804 312.778,241.304 308.281,238.925 305.934 C 236.546 303.588,232.594 299.628,230.142 297.134 C 227.691 294.641,223.731 290.672,221.342 288.316 C 218.954 285.961,200.350 267.363,180.000 246.988 C 159.650 226.613,140.435 207.423,137.300 204.344 C 134.165 201.265,131.600 198.501,131.600 198.203 C 131.600 197.904,166.880 162.392,210.000 119.288 C 253.120 76.183,288.427 40.664,288.461 40.358 C 288.555 39.499,288.629 39.104,288.956 37.710 C 289.462 35.556,287.785 31.339,285.800 29.775 C 285.140 29.255,284.312 28.580,283.961 28.275 C 283.609 27.971,282.619 27.604,281.761 27.461 C 280.902 27.318,279.815 27.095,279.345 26.965 C 278.875 26.836,278.369 26.926,278.222 27.165 M111.260 189.042 C 110.531 189.866,111.000 190.257,111.781 189.476 C 112.121 189.136,112.400 188.754,112.400 188.629 C 112.400 188.209,111.806 188.424,111.260 189.042 M127.215 222.198 C 128.134 223.453,128.822 224.111,129.015 223.918 C 129.112 223.821,128.615 223.215,127.911 222.571 C 127.207 221.927,126.894 221.759,127.215 222.198 M150.006 244.700 C 150.003 245.195,150.180 245.600,150.400 245.600 C 150.901 245.600,150.901 245.176,150.400 244.400 C 150.086 243.915,150.011 243.972,150.006 244.700 M154.000 249.029 C 154.000 249.333,155.078 250.400,155.386 250.400 C 155.519 250.400,155.435 250.040,155.200 249.600 C 154.809 248.869,154.000 248.484,154.000 249.029 M158.000 253.001 C 158.000 253.338,160.938 255.995,161.115 255.819 C 161.206 255.728,160.638 255.011,159.853 254.227 C 158.503 252.877,158.000 252.544,158.000 253.001 M166.602 261.602 C 167.002 262.044,167.411 262.322,167.512 262.221 C 167.728 262.005,166.588 260.800,166.167 260.800 C 166.007 260.800,166.203 261.161,166.602 261.602 M175.600 270.629 C 175.600 271.053,176.836 272.097,177.067 271.867 C 177.192 271.741,177.017 271.360,176.676 271.019 C 176.041 270.384,175.600 270.224,175.600 270.629 M178.022 273.100 C 178.049 273.469,180.400 275.359,180.400 275.012 C 180.400 274.706,178.520 272.800,178.218 272.800 C 178.098 272.800,178.010 272.935,178.022 273.100 M182.000 277.104 C 182.000 277.271,182.360 277.632,182.800 277.907 C 183.730 278.488,183.854 278.197,183.029 277.371 C 182.398 276.741,182.000 276.637,182.000 277.104 M261.693 356.800 C 261.968 357.240,262.331 357.600,262.500 357.600 C 262.669 357.600,262.582 357.240,262.307 356.800 C 262.032 356.360,261.669 356.000,261.500 356.000 C 261.331 356.000,261.418 356.360,261.693 356.800"/><path id="path1" fill="#f4f4f4" fill-rule="evenodd" stroke="none" d="M279.633 26.944 C 280.111 27.356,282.000 27.566,282.000 27.208 C 282.000 26.983,281.430 26.800,280.733 26.800 C 280.037 26.800,279.542 26.865,279.633 26.944 M274.164 28.575 C 273.704 29.052,272.714 29.942,271.964 30.554 C 271.214 31.165,270.960 31.477,271.400 31.248 C 272.565 30.641,275.434 28.106,275.200 27.891 C 275.090 27.790,274.624 28.097,274.164 28.575 M286.273 30.100 C 288.006 32.021,289.483 36.077,289.002 37.593 C 288.806 38.212,288.855 38.413,289.157 38.226 C 289.709 37.885,289.743 35.336,289.200 35.000 C 288.980 34.864,288.800 34.414,288.800 33.999 C 288.800 33.233,287.422 30.610,286.541 29.700 C 285.679 28.809,285.435 29.172,286.273 30.100 M269.103 33.500 C 266.665 35.997,265.938 36.605,265.530 36.490 C 265.316 36.430,265.255 36.565,265.394 36.790 C 265.687 37.265,268.708 34.862,269.979 33.143 C 271.122 31.597,270.854 31.706,269.103 33.500 M263.600 39.153 C 263.600 39.348,263.240 39.601,262.800 39.716 C 262.360 39.831,262.000 40.246,262.000 40.639 C 262.000 41.251,262.071 41.271,262.500 40.776 C 262.775 40.459,263.354 39.885,263.786 39.500 C 264.218 39.115,264.353 38.800,264.086 38.800 C 263.819 38.800,263.600 38.959,263.600 39.153 M284.786 44.682 C 282.720 46.839,282.701 46.877,284.433 45.382 C 286.017 44.015,287.455 42.400,287.090 42.400 C 287.025 42.400,285.989 43.427,284.786 44.682 M256.499 45.906 C 255.563 46.728,254.803 47.670,254.811 48.000 C 254.821 48.458,254.924 48.428,255.247 47.874 C 255.479 47.474,256.329 46.534,257.135 45.784 C 259.112 43.945,258.626 44.038,256.499 45.906 M251.018 51.018 C 250.387 51.560,249.971 52.104,250.093 52.226 C 250.215 52.349,250.795 51.968,251.382 51.382 C 252.764 50.000,252.505 49.741,251.018 51.018 M275.691 53.460 C 274.751 54.417,274.129 55.200,274.310 55.200 C 274.731 55.200,277.805 52.063,277.574 51.868 C 277.478 51.787,276.631 52.503,275.691 53.460 M243.600 59.200 C 243.600 59.420,243.240 59.600,242.800 59.600 C 242.330 59.600,242.000 59.867,242.000 60.247 C 242.000 60.603,241.415 61.440,240.700 62.106 C 239.985 62.772,239.760 63.071,240.200 62.771 C 241.567 61.836,244.503 58.800,244.040 58.800 C 243.798 58.800,243.600 58.980,243.600 59.200 M236.400 65.776 C 236.400 66.119,236.226 66.400,236.014 66.400 C 235.802 66.400,235.435 66.760,235.200 67.200 C 234.614 68.294,234.854 68.205,236.158 66.844 C 236.857 66.114,237.106 65.589,236.833 65.420 C 236.593 65.272,236.400 65.431,236.400 65.776 M261.234 68.153 L 260.269 69.400 261.413 68.312 C 262.043 67.714,262.477 67.153,262.379 67.065 C 262.280 66.977,261.765 67.467,261.234 68.153 M234.000 68.733 C 234.000 68.990,233.752 69.200,233.449 69.200 C 232.884 69.200,231.761 70.297,232.043 70.574 C 232.129 70.659,232.733 70.302,233.384 69.782 C 234.036 69.261,234.441 68.707,234.284 68.551 C 234.128 68.395,234.000 68.477,234.000 68.733 M230.100 71.985 C 229.041 73.328,228.883 74.104,229.900 72.970 C 231.240 71.476,231.696 70.800,231.349 70.822 C 231.157 70.834,230.595 71.358,230.100 71.985 M224.584 77.627 C 224.160 78.313,224.539 78.380,225.377 77.767 C 226.026 77.293,226.046 77.200,225.500 77.200 C 225.141 77.200,224.729 77.392,224.584 77.627 M222.077 80.649 C 221.130 81.623,220.157 82.297,219.915 82.148 C 219.660 81.990,219.590 82.060,219.747 82.314 C 219.896 82.555,219.620 83.123,219.133 83.576 C 218.647 84.029,218.372 84.400,218.521 84.400 C 218.902 84.400,224.151 79.216,223.958 79.031 C 223.871 78.948,223.025 79.676,222.077 80.649 M216.791 86.013 C 216.479 86.446,216.012 86.800,215.754 86.800 C 215.497 86.800,215.178 87.081,215.046 87.425 C 214.789 88.094,216.918 86.779,217.428 85.955 C 217.908 85.178,217.356 85.228,216.791 86.013 M241.800 87.506 C 241.580 87.668,241.135 88.160,240.812 88.600 C 240.378 89.191,240.509 89.146,241.312 88.430 C 242.291 87.558,242.589 87.188,242.300 87.206 C 242.245 87.209,242.020 87.344,241.800 87.506 M211.552 90.800 C 210.627 91.680,210.070 92.400,210.315 92.400 C 210.560 92.400,210.904 92.172,211.080 91.893 C 211.256 91.615,211.999 90.895,212.731 90.293 C 213.463 89.692,213.875 89.200,213.648 89.200 C 213.420 89.200,212.477 89.920,211.552 90.800 M207.500 94.676 C 207.115 94.776,206.800 95.235,206.800 95.696 C 206.800 96.157,206.847 96.458,206.904 96.367 C 206.962 96.275,207.350 95.795,207.766 95.300 C 208.183 94.805,208.451 94.421,208.362 94.446 C 208.273 94.472,207.885 94.575,207.500 94.676 M206.000 96.733 C 206.000 96.990,205.724 97.200,205.387 97.200 C 205.051 97.200,204.658 97.515,204.515 97.900 C 204.225 98.683,202.860 100.000,202.339 100.000 C 202.152 100.000,202.000 100.193,202.000 100.429 C 202.000 100.933,201.001 102.000,200.529 102.000 C 200.132 102.001,197.200 104.975,197.200 105.377 C 197.200 105.877,199.555 103.820,199.578 103.300 C 199.590 103.025,199.792 102.800,200.027 102.800 C 200.634 102.800,206.557 96.823,206.252 96.519 C 206.113 96.380,206.000 96.477,206.000 96.733 M191.800 110.492 C 190.585 111.753,190.860 111.653,192.954 110.072 C 193.589 109.592,193.859 109.210,193.554 109.223 C 193.249 109.235,192.460 109.807,191.800 110.492 M189.216 112.875 C 188.767 113.357,188.406 113.942,188.413 114.175 C 188.420 114.409,188.645 114.330,188.913 114.000 C 189.181 113.670,189.728 113.085,190.129 112.700 C 190.529 112.315,190.671 112.000,190.444 112.000 C 190.217 112.000,189.664 112.394,189.216 112.875 M184.850 117.832 C 184.107 118.603,183.567 119.299,183.650 119.380 C 183.732 119.460,184.493 118.823,185.341 117.963 C 186.188 117.103,186.728 116.407,186.541 116.416 C 186.353 116.425,185.592 117.062,184.850 117.832 M181.200 121.600 C 181.200 121.820,180.840 122.000,180.400 122.000 C 179.960 122.000,179.600 122.180,179.600 122.400 C 179.600 123.020,180.221 122.875,181.256 122.013 C 181.775 121.581,181.975 121.221,181.700 121.213 C 181.425 121.206,181.200 121.380,181.200 121.600 M176.400 126.400 C 176.400 126.620,176.130 126.800,175.800 126.800 C 175.470 126.800,175.200 126.967,175.200 127.171 C 175.200 127.376,174.909 127.834,174.552 128.190 C 174.196 128.547,173.971 128.903,174.052 128.982 C 174.134 129.061,174.893 128.423,175.741 127.563 C 176.588 126.703,177.083 126.000,176.841 126.000 C 176.598 126.000,176.400 126.180,176.400 126.400 M169.568 132.700 C 168.861 134.069,168.186 134.800,167.629 134.800 C 167.393 134.800,167.200 134.980,167.200 135.201 C 167.200 135.421,166.525 136.266,165.700 137.078 C 164.875 137.890,164.560 138.298,165.000 137.984 C 166.358 137.016,169.579 133.821,169.590 133.431 C 169.595 133.229,169.898 132.734,170.262 132.331 C 170.626 131.929,170.747 131.600,170.530 131.600 C 170.313 131.600,169.880 132.095,169.568 132.700 M161.615 140.900 L 160.679 142.200 161.939 141.025 C 163.275 139.780,163.394 139.600,162.875 139.600 C 162.697 139.600,162.129 140.185,161.615 140.900 M157.339 145.043 C 157.184 145.459,156.865 145.932,156.629 146.094 C 156.338 146.293,156.356 146.390,156.686 146.394 C 157.235 146.401,158.185 144.851,157.842 144.508 C 157.719 144.386,157.493 144.626,157.339 145.043 M154.917 147.500 C 154.775 147.885,154.465 148.332,154.229 148.494 C 153.930 148.699,153.938 148.790,154.254 148.794 C 154.504 148.797,155.003 148.350,155.363 147.800 C 155.726 147.247,155.830 146.800,155.597 146.800 C 155.365 146.800,155.059 147.115,154.917 147.500 M152.200 150.000 C 151.802 150.440,151.601 150.800,151.755 150.800 C 151.908 150.800,152.420 150.440,152.892 150.000 C 153.364 149.560,153.565 149.200,153.337 149.200 C 153.110 149.200,152.598 149.560,152.200 150.000 M149.800 152.131 C 149.378 152.658,149.093 153.600,149.354 153.600 C 149.439 153.600,149.803 153.150,150.163 152.600 C 150.827 151.587,150.536 151.211,149.800 152.131 M146.925 155.452 C 146.594 156.314,143.295 159.600,142.761 159.600 C 142.107 159.600,141.118 160.753,141.301 161.303 C 141.401 161.604,141.654 161.447,141.947 160.899 C 142.212 160.405,142.647 159.995,142.914 159.990 C 143.771 159.972,148.477 154.800,147.636 154.800 C 147.383 154.800,147.062 155.094,146.925 155.452 M168.060 161.042 C 167.762 161.378,167.599 161.732,167.695 161.829 C 167.792 161.926,168.198 161.644,168.598 161.202 C 168.997 160.761,169.161 160.407,168.962 160.415 C 168.763 160.424,168.357 160.705,168.060 161.042 M139.308 163.065 L 138.817 164.123 139.808 163.192 C 140.940 162.129,140.994 161.999,140.300 162.003 C 140.025 162.005,139.579 162.483,139.308 163.065 M165.660 163.442 C 165.362 163.778,165.199 164.132,165.295 164.229 C 165.392 164.326,165.798 164.044,166.198 163.602 C 166.597 163.161,166.761 162.807,166.562 162.815 C 166.363 162.824,165.957 163.105,165.660 163.442 M132.100 169.798 C 131.531 170.445,131.461 170.800,131.904 170.800 C 132.071 170.800,132.432 170.440,132.707 170.000 C 133.278 169.087,132.851 168.945,132.100 169.798 M126.800 175.667 C 126.800 176.143,126.851 176.458,126.913 176.367 C 126.975 176.275,127.267 175.885,127.562 175.500 C 128.021 174.901,128.004 174.800,127.449 174.800 C 127.050 174.800,126.800 175.134,126.800 175.667 M122.900 179.288 C 122.405 179.527,122.000 179.879,122.000 180.070 C 122.000 180.262,122.450 180.124,123.000 179.763 C 124.467 178.802,124.416 178.557,122.900 179.288 M119.738 182.617 C 119.378 183.555,119.767 183.666,120.319 182.782 C 120.628 182.287,120.654 182.000,120.391 182.000 C 120.162 182.000,119.868 182.278,119.738 182.617 M117.313 185.100 C 117.169 185.485,116.500 186.310,115.826 186.933 C 114.632 188.037,114.629 188.049,115.710 187.381 C 116.978 186.597,118.677 184.400,118.015 184.400 C 117.773 184.400,117.457 184.715,117.313 185.100 M113.296 188.946 C 112.799 189.192,112.292 189.709,112.169 190.096 C 112.047 190.483,111.733 190.801,111.473 190.803 C 111.213 190.805,110.789 191.262,110.530 191.819 C 110.197 192.537,110.688 192.218,112.225 190.715 C 114.125 188.858,114.662 188.272,114.300 188.449 C 114.245 188.476,113.793 188.700,113.296 188.946 M108.800 195.800 C 108.506 196.349,108.381 196.914,108.522 197.055 C 108.662 197.196,108.968 196.811,109.200 196.200 C 109.432 195.589,109.558 195.024,109.478 194.945 C 109.399 194.866,109.094 195.251,108.800 195.800 M108.406 199.476 C 108.403 199.958,108.580 200.464,108.800 200.600 C 109.309 200.915,109.309 199.988,108.800 199.200 C 108.485 198.712,108.411 198.764,108.406 199.476 M109.333 202.516 C 109.333 202.892,109.483 203.200,109.667 203.200 C 109.850 203.200,110.000 203.590,110.000 204.067 C 110.000 204.543,110.120 204.813,110.268 204.666 C 110.415 204.519,110.903 204.714,111.353 205.099 C 111.972 205.629,111.931 205.495,111.186 204.554 C 110.644 203.868,110.005 202.975,109.767 202.570 C 109.379 201.910,109.333 201.904,109.333 202.516 M112.400 206.385 C 112.400 206.627,112.715 206.943,113.100 207.087 C 113.485 207.231,114.310 207.900,114.933 208.574 C 116.037 209.768,116.049 209.771,115.381 208.690 C 114.597 207.422,112.400 205.723,112.400 206.385 M140.000 206.853 C 140.000 206.942,142.250 209.223,145.000 211.921 C 147.750 214.619,150.000 216.729,150.000 216.611 C 150.000 216.367,145.241 211.568,142.100 208.645 C 140.945 207.570,140.000 206.764,140.000 206.853 M173.800 240.703 C 195.802 262.795,197.200 264.179,197.200 263.875 C 197.200 263.686,165.530 231.994,157.556 224.204 C 153.730 220.466,161.040 227.891,173.800 240.703 M139.190 232.663 C 139.416 232.775,139.600 233.111,139.600 233.410 C 139.600 233.708,139.778 234.063,139.995 234.197 C 140.245 234.351,140.268 234.112,140.056 233.541 C 139.873 233.046,139.511 232.600,139.252 232.551 C 138.992 232.501,138.965 232.552,139.190 232.663 M199.787 266.716 C 201.101 268.082,202.227 269.200,202.291 269.200 C 202.659 269.200,201.183 267.557,199.429 266.016 C 197.456 264.282,197.466 264.301,199.787 266.716 M204.400 271.152 C 204.400 271.542,205.955 272.998,206.123 272.764 C 206.187 272.674,205.826 272.201,205.320 271.714 C 204.814 271.227,204.400 270.974,204.400 271.152 M207.200 274.200 C 207.717 274.750,208.280 275.200,208.452 275.200 C 208.623 275.200,208.314 274.750,207.764 274.200 C 207.214 273.650,206.650 273.200,206.512 273.200 C 206.374 273.200,206.683 273.650,207.200 274.200 M209.200 275.962 C 209.200 276.104,210.584 277.566,212.276 279.210 C 213.968 280.855,215.123 281.893,214.841 281.517 C 214.029 280.431,209.200 275.676,209.200 275.962 M216.400 283.337 C 218.070 285.236,225.613 292.590,226.046 292.742 C 226.391 292.863,216.471 282.966,215.680 282.400 C 215.526 282.290,215.850 282.712,216.400 283.337 M189.762 283.942 C 190.609 284.895,190.800 284.982,190.800 284.414 C 190.800 284.202,190.395 283.816,189.900 283.556 C 189.005 283.086,189.004 283.088,189.762 283.942 M191.441 284.900 C 191.576 285.285,191.846 285.600,192.043 285.600 C 192.239 285.600,192.400 285.859,192.400 286.176 C 192.400 286.493,192.580 286.864,192.800 287.000 C 193.565 287.473,193.194 286.438,192.198 285.322 C 191.601 284.653,191.295 284.483,191.441 284.900 M226.800 293.529 C 226.800 293.690,228.104 295.077,229.698 296.611 C 231.742 298.578,232.008 298.767,230.598 297.251 C 227.362 293.771,226.800 293.220,226.800 293.529 M206.739 300.347 C 207.212 300.758,207.600 301.287,207.600 301.523 C 207.600 301.760,207.778 302.063,207.995 302.197 C 208.542 302.535,208.026 301.172,207.277 300.300 C 206.947 299.915,206.496 299.600,206.277 299.600 C 206.057 299.600,206.265 299.936,206.739 300.347 M234.023 301.000 C 235.181 302.423,242.241 309.210,241.857 308.532 C 241.642 308.152,234.178 300.715,233.294 300.000 C 233.158 299.890,233.486 300.340,234.023 301.000 M210.000 303.700 C 210.000 304.059,210.192 304.471,210.427 304.616 C 211.113 305.040,211.180 304.661,210.567 303.823 C 210.093 303.174,210.000 303.154,210.000 303.700 M244.000 310.910 C 244.000 310.971,245.350 312.361,247.000 314.000 C 248.650 315.639,250.000 316.878,250.000 316.754 C 250.000 316.504,244.399 310.800,244.153 310.800 C 244.069 310.800,244.000 310.850,244.000 310.910 M250.400 317.325 C 250.400 317.394,250.985 317.979,251.700 318.625 L 253.000 319.800 251.825 318.500 C 250.730 317.288,250.400 317.016,250.400 317.325 M226.846 320.513 C 226.821 320.904,227.115 321.342,227.500 321.485 C 227.885 321.628,228.491 322.072,228.847 322.472 C 229.203 322.873,229.639 323.200,229.817 323.200 C 229.994 323.200,229.717 322.750,229.200 322.200 C 228.683 321.650,228.035 321.200,227.760 321.200 C 227.484 321.200,227.176 320.885,227.076 320.500 C 226.904 319.844,226.890 319.845,226.846 320.513 M253.201 320.083 C 253.553 320.584,259.883 326.965,261.053 328.000 C 263.238 329.932,258.986 325.387,256.001 322.600 C 254.351 321.060,253.091 319.927,253.201 320.083 M264.410 331.108 C 264.424 331.486,268.377 335.368,268.536 335.159 C 268.602 335.071,267.699 334.059,266.528 332.908 C 265.358 331.757,264.405 330.947,264.410 331.108 M240.514 334.120 C 241.001 334.626,241.474 334.987,241.564 334.923 C 241.798 334.755,240.342 333.200,239.952 333.200 C 239.774 333.200,240.027 333.614,240.514 334.120 M270.400 337.400 C 271.372 338.390,272.242 339.200,272.335 339.200 C 272.673 339.200,269.389 335.674,269.017 335.638 C 268.806 335.617,269.428 336.410,270.400 337.400 M273.300 340.187 C 273.559 340.673,283.352 350.400,283.582 350.400 C 283.726 350.400,281.533 348.105,278.709 345.300 C 273.904 340.527,273.050 339.719,273.300 340.187 M284.800 351.800 C 285.317 352.350,285.880 352.800,286.052 352.800 C 286.223 352.800,285.914 352.350,285.364 351.800 C 284.814 351.250,284.250 350.800,284.112 350.800 C 283.974 350.800,284.283 351.250,284.800 351.800 M286.832 353.638 C 286.814 353.989,287.160 354.602,287.600 355.000 C 288.040 355.398,288.425 356.191,288.454 356.762 C 288.507 357.758,288.516 357.762,288.687 356.861 C 288.797 356.286,288.562 355.587,288.084 355.061 C 287.654 354.587,287.203 353.930,287.082 353.600 C 286.896 353.091,286.858 353.097,286.832 353.638 M288.838 359.400 C 288.849 360.799,288.898 360.883,289.226 360.065 C 289.462 359.475,289.457 358.884,289.212 358.465 C 288.916 357.958,288.827 358.180,288.838 359.400 M266.489 360.142 C 267.210 360.880,267.877 361.418,267.971 361.338 C 268.202 361.140,265.937 358.800,265.514 358.800 C 265.329 358.800,265.767 359.404,266.489 360.142 M269.219 362.600 C 269.759 363.260,270.785 364.364,271.500 365.054 C 272.215 365.744,272.800 366.465,272.800 366.656 C 272.800 366.848,273.341 367.244,274.002 367.537 C 274.664 367.830,275.103 368.234,274.979 368.435 C 274.854 368.636,275.348 368.775,276.076 368.746 C 276.939 368.710,277.101 368.633,276.542 368.523 C 276.070 368.431,275.367 368.005,274.980 367.578 C 274.593 367.150,274.112 366.800,273.912 366.800 C 273.711 366.800,272.353 365.585,270.893 364.100 C 269.433 362.615,268.680 361.940,269.219 362.600 M287.311 364.500 C 287.098 364.775,286.810 365.319,286.671 365.709 C 286.532 366.099,286.099 366.531,285.709 366.669 C 285.319 366.806,284.640 367.231,284.200 367.612 C 283.302 368.390,281.339 368.878,279.100 368.879 C 278.275 368.880,277.600 369.042,277.600 369.240 C 277.600 369.438,278.410 369.600,279.400 369.600 C 280.390 369.600,281.200 369.420,281.200 369.200 C 281.200 368.980,281.681 368.800,282.269 368.800 C 282.856 368.800,283.667 368.501,284.071 368.136 C 284.475 367.770,285.195 367.275,285.671 367.036 C 286.146 366.796,286.861 366.015,287.260 365.300 C 287.993 363.983,288.019 363.586,287.311 364.500"/><path id="path2" fill="#ececec" fill-rule="evenodd" stroke="none" d="M272.060 29.842 C 271.762 30.178,271.599 30.532,271.695 30.629 C 271.792 30.726,272.198 30.444,272.598 30.002 C 272.997 29.561,273.161 29.207,272.962 29.215 C 272.763 29.224,272.357 29.505,272.060 29.842 M269.660 32.242 C 269.362 32.578,269.199 32.932,269.295 33.029 C 269.392 33.126,269.798 32.844,270.198 32.402 C 270.597 31.961,270.761 31.607,270.562 31.615 C 270.363 31.624,269.957 31.905,269.660 32.242 M265.846 36.225 C 265.714 36.569,265.437 36.746,265.230 36.619 C 265.024 36.491,264.761 36.540,264.645 36.727 C 264.236 37.389,265.607 37.055,266.260 36.333 C 266.625 35.930,266.735 35.600,266.505 35.600 C 266.274 35.600,265.978 35.881,265.846 36.225 M260.060 41.868 C 259.334 42.653,259.625 42.864,260.525 42.206 C 260.922 41.915,261.102 41.588,260.924 41.480 C 260.746 41.372,260.357 41.547,260.060 41.868 M257.646 44.406 C 256.901 45.063,256.451 45.597,256.646 45.594 C 256.841 45.590,257.609 45.050,258.354 44.394 C 259.099 43.737,259.549 43.203,259.354 43.206 C 259.159 43.210,258.391 43.750,257.646 44.406 M253.693 48.400 C 253.418 48.840,253.298 49.200,253.425 49.200 C 253.725 49.200,254.800 48.127,254.800 47.829 C 254.800 47.320,254.162 47.649,253.693 48.400 M244.848 57.200 C 243.942 58.079,243.200 58.992,243.200 59.228 C 243.200 59.468,243.421 59.413,243.700 59.105 C 243.975 58.801,244.820 57.888,245.578 57.076 C 247.418 55.106,246.919 55.190,244.848 57.200 M253.993 75.465 C 251.467 78.030,249.940 79.695,250.600 79.165 C 251.938 78.089,259.058 70.800,258.770 70.800 C 258.669 70.800,256.520 72.899,253.993 75.465 M222.843 79.223 C 222.317 79.661,221.965 80.098,222.061 80.194 C 222.156 80.290,222.750 79.925,223.379 79.384 C 224.009 78.843,224.361 78.406,224.162 78.413 C 223.963 78.421,223.370 78.785,222.843 79.223 M216.229 85.829 C 215.805 86.138,215.572 86.505,215.710 86.643 C 215.849 86.782,216.262 86.595,216.629 86.229 C 217.491 85.366,217.225 85.100,216.229 85.829 M234.614 94.786 C 231.548 97.858,229.120 100.423,229.219 100.486 C 229.319 100.549,231.928 98.035,235.018 94.900 C 238.108 91.765,240.536 89.200,240.413 89.200 C 240.290 89.200,237.680 91.714,234.614 94.786 M196.202 105.998 C 195.803 106.439,195.607 106.800,195.767 106.800 C 196.188 106.800,197.328 105.595,197.112 105.379 C 197.011 105.278,196.602 105.556,196.202 105.998 M212.992 116.489 C 209.825 119.733,209.620 120.001,212.000 117.789 C 214.830 115.158,217.456 112.400,217.132 112.400 C 217.051 112.400,215.188 114.240,212.992 116.489 M186.857 115.266 C 186.166 115.973,185.600 116.701,185.600 116.883 C 185.600 117.065,186.237 116.558,187.016 115.757 C 187.795 114.955,188.360 114.227,188.273 114.140 C 188.185 114.052,187.548 114.559,186.857 115.266 M178.047 124.076 C 177.361 124.778,176.800 125.490,176.800 125.658 C 176.800 125.963,178.113 124.742,179.149 123.473 C 180.075 122.339,179.368 122.726,178.047 124.076 M196.192 133.300 L 192.200 137.400 196.300 133.408 C 198.555 131.212,200.400 129.367,200.400 129.308 C 200.400 129.018,199.901 129.492,196.192 133.300 M168.202 133.998 C 167.803 134.439,167.607 134.800,167.767 134.800 C 168.188 134.800,169.328 133.595,169.112 133.379 C 169.011 133.278,168.602 133.556,168.202 133.998 M164.027 138.034 C 163.317 138.713,162.827 139.360,162.938 139.472 C 163.050 139.583,163.770 139.028,164.537 138.237 C 166.242 136.482,165.825 136.316,164.027 138.034 M190.406 138.994 C 189.663 139.761,189.132 140.450,189.227 140.525 C 189.322 140.600,190.006 139.973,190.746 139.131 C 192.429 137.218,192.212 137.131,190.406 138.994 M160.860 141.042 C 160.562 141.378,160.399 141.732,160.495 141.829 C 160.592 141.926,160.998 141.644,161.398 141.202 C 161.797 140.761,161.961 140.407,161.762 140.415 C 161.563 140.424,161.157 140.705,160.860 141.042 M158.602 143.598 C 158.203 144.039,158.007 144.400,158.167 144.400 C 158.588 144.400,159.728 143.195,159.512 142.979 C 159.411 142.878,159.002 143.156,158.602 143.598 M174.595 154.900 L 169.000 160.600 174.700 155.005 C 179.995 149.808,180.581 149.200,180.295 149.200 C 180.237 149.200,177.672 151.765,174.595 154.900 M145.067 157.067 C 144.248 157.862,143.651 158.584,143.739 158.672 C 143.827 158.760,144.568 158.182,145.387 157.387 C 146.205 156.592,146.803 155.869,146.715 155.781 C 146.627 155.693,145.885 156.272,145.067 157.067 M136.202 165.998 C 135.803 166.439,135.607 166.800,135.767 166.800 C 136.188 166.800,137.328 165.595,137.112 165.379 C 137.011 165.278,136.602 165.556,136.202 165.998 M134.074 167.882 C 133.564 168.431,133.248 168.981,133.371 169.104 C 133.623 169.357,135.200 167.662,135.200 167.139 C 135.200 166.689,135.151 166.721,134.074 167.882 M154.595 174.900 L 149.000 180.600 154.700 175.005 C 159.995 169.808,160.581 169.200,160.295 169.200 C 160.237 169.200,157.672 171.765,154.595 174.900 M128.202 173.998 C 127.803 174.439,127.607 174.800,127.767 174.800 C 128.188 174.800,129.328 173.595,129.112 173.379 C 129.011 173.278,128.602 173.556,128.202 173.998 M124.720 177.430 C 123.690 178.403,122.987 179.200,123.158 179.200 C 123.557 179.200,126.933 176.000,126.739 175.806 C 126.659 175.726,125.750 176.456,124.720 177.430 M118.602 183.598 C 118.203 184.039,118.007 184.400,118.167 184.400 C 118.588 184.400,119.728 183.195,119.512 182.979 C 119.411 182.878,119.002 183.156,118.602 183.598 M115.854 186.255 C 115.223 186.797,114.781 187.315,114.871 187.404 C 114.961 187.494,115.551 187.124,116.182 186.582 C 116.813 186.040,117.255 185.522,117.165 185.432 C 117.074 185.342,116.484 185.712,115.854 186.255 M113.660 188.268 C 112.934 189.053,113.225 189.264,114.125 188.606 C 114.522 188.315,114.702 187.988,114.524 187.880 C 114.346 187.772,113.957 187.947,113.660 188.268 M136.392 193.100 L 132.600 197.000 136.500 193.208 C 140.122 189.686,140.582 189.200,140.292 189.200 C 140.233 189.200,138.478 190.955,136.392 193.100 M131.731 197.835 C 131.578 198.235,131.911 198.864,132.633 199.535 L 133.777 200.600 132.838 199.520 C 132.302 198.904,132.001 198.174,132.137 197.820 C 132.268 197.479,132.285 197.200,132.175 197.200 C 132.065 197.200,131.865 197.486,131.731 197.835 M110.400 204.520 C 110.400 204.953,111.955 206.396,112.123 206.120 C 112.230 205.944,111.886 205.477,111.359 205.081 C 110.831 204.686,110.400 204.434,110.400 204.520 M122.013 216.036 C 122.006 216.385,122.495 216.894,123.100 217.166 C 124.017 217.579,124.103 217.573,123.618 217.131 C 123.298 216.839,122.809 216.330,122.531 216.000 C 122.084 215.469,122.024 215.474,122.013 216.036 M137.200 231.429 C 137.200 231.853,138.436 232.897,138.667 232.667 C 138.792 232.541,138.617 232.160,138.276 231.819 C 137.641 231.184,137.200 231.024,137.200 231.429 M142.000 236.304 C 142.000 236.471,142.364 236.835,142.809 237.113 C 143.559 237.581,143.581 237.559,143.113 236.809 C 142.609 236.003,142.000 235.726,142.000 236.304 M144.400 238.629 C 144.400 239.053,145.636 240.097,145.867 239.867 C 145.992 239.741,145.817 239.360,145.476 239.019 C 144.841 238.384,144.400 238.224,144.400 238.629 M146.800 241.029 C 146.800 241.453,148.036 242.497,148.267 242.267 C 148.392 242.141,148.217 241.760,147.876 241.419 C 147.241 240.784,146.800 240.624,146.800 241.029 M150.800 245.029 C 150.800 245.453,152.036 246.497,152.267 246.267 C 152.392 246.141,152.217 245.760,151.876 245.419 C 151.241 244.784,150.800 244.624,150.800 245.029 M152.667 246.667 C 152.567 246.767,152.935 247.298,153.485 247.848 C 154.035 248.398,154.567 248.767,154.667 248.667 C 154.767 248.567,154.398 248.035,153.848 247.485 C 153.298 246.935,152.767 246.567,152.667 246.667 M159.600 253.829 C 159.600 254.253,160.836 255.297,161.067 255.067 C 161.192 254.941,161.017 254.560,160.676 254.219 C 160.041 253.584,159.600 253.424,159.600 253.829 M166.800 261.029 C 166.800 261.453,168.036 262.497,168.267 262.267 C 168.392 262.141,168.217 261.760,167.876 261.419 C 167.241 260.784,166.800 260.624,166.800 261.029 M169.200 263.429 C 169.200 263.727,170.275 264.800,170.575 264.800 C 170.702 264.800,170.582 264.440,170.307 264.000 C 169.838 263.249,169.200 262.920,169.200 263.429 M182.000 276.229 C 182.000 276.653,183.236 277.697,183.467 277.467 C 183.592 277.341,183.417 276.960,183.076 276.619 C 182.441 275.984,182.000 275.824,182.000 276.229 M184.400 278.704 C 184.400 278.871,184.764 279.235,185.209 279.513 C 185.959 279.981,185.981 279.959,185.513 279.209 C 185.009 278.403,184.400 278.126,184.400 278.704 M197.200 291.429 C 197.200 291.853,198.436 292.897,198.667 292.667 C 198.792 292.541,198.617 292.160,198.276 291.819 C 197.641 291.184,197.200 291.024,197.200 291.429 M202.000 296.229 C 202.000 296.653,203.236 297.697,203.467 297.467 C 203.592 297.341,203.417 296.960,203.076 296.619 C 202.441 295.984,202.000 295.824,202.000 296.229 M213.200 307.429 C 213.200 307.727,214.275 308.800,214.575 308.800 C 214.702 308.800,214.582 308.440,214.307 308.000 C 213.838 307.249,213.200 306.920,213.200 307.429 M217.200 311.425 C 217.200 311.725,218.273 312.800,218.571 312.800 C 219.080 312.800,218.751 312.162,218.000 311.693 C 217.560 311.418,217.200 311.298,217.200 311.425 M222.000 316.225 C 222.000 316.525,223.073 317.600,223.371 317.600 C 223.880 317.600,223.551 316.962,222.800 316.493 C 222.360 316.218,222.000 316.098,222.000 316.225 M254.001 348.200 C 254.551 348.860,255.045 349.475,255.100 349.567 C 255.155 349.658,255.288 349.645,255.396 349.538 C 255.504 349.430,255.009 348.815,254.297 348.171 L 253.003 347.000 254.001 348.200 M289.062 360.547 C 288.897 361.178,288.856 361.789,288.971 361.904 C 289.293 362.227,289.687 360.938,289.515 360.123 C 289.403 359.590,289.284 359.701,289.062 360.547"/><path id="path3" fill="#e4e4e4" fill-rule="evenodd" stroke="none" d="M275.000 27.200 C 274.859 27.428,275.204 27.600,275.800 27.600 C 276.396 27.600,276.741 27.428,276.600 27.200 C 276.464 26.980,276.104 26.800,275.800 26.800 C 275.496 26.800,275.136 26.980,275.000 27.200 M268.060 33.842 C 267.762 34.178,267.599 34.532,267.695 34.629 C 267.792 34.726,268.198 34.444,268.598 34.002 C 268.997 33.561,269.161 33.207,268.962 33.215 C 268.763 33.224,268.357 33.505,268.060 33.842 M288.806 33.500 C 288.824 34.377,289.588 34.959,289.594 34.100 C 289.597 33.605,289.420 33.200,289.200 33.200 C 288.980 33.200,288.803 33.335,288.806 33.500 M286.060 43.842 C 285.762 44.178,285.599 44.532,285.695 44.629 C 285.792 44.726,286.198 44.444,286.598 44.002 C 286.997 43.561,287.161 43.207,286.962 43.215 C 286.763 43.224,286.357 43.505,286.060 43.842 M244.974 56.502 C 243.937 57.613,243.803 57.850,244.582 57.195 C 246.531 55.554,246.904 55.170,246.722 54.988 C 246.626 54.893,245.840 55.574,244.974 56.502 M240.860 61.042 C 240.562 61.378,240.399 61.732,240.495 61.829 C 240.592 61.926,240.998 61.644,241.398 61.202 C 241.797 60.761,241.961 60.407,241.762 60.415 C 241.563 60.424,241.157 60.705,240.860 61.042 M236.200 65.200 C 235.341 66.080,234.764 66.800,234.918 66.800 C 235.073 66.800,235.941 66.080,236.848 65.200 C 237.755 64.320,238.331 63.600,238.129 63.600 C 237.928 63.600,237.059 64.320,236.200 65.200 M225.814 75.586 C 224.567 76.862,224.444 77.114,225.156 76.927 C 225.638 76.801,225.946 76.612,225.841 76.507 C 225.735 76.402,226.116 75.883,226.687 75.354 C 227.258 74.825,227.640 74.307,227.537 74.203 C 227.433 74.100,226.658 74.722,225.814 75.586 M219.875 81.522 C 218.728 82.719,218.541 83.200,219.224 83.200 C 219.457 83.200,219.544 83.032,219.417 82.828 C 219.195 82.468,219.884 81.819,220.500 81.806 C 220.665 81.803,220.787 81.627,220.770 81.416 C 220.754 81.204,221.069 80.902,221.470 80.744 C 222.035 80.521,222.059 80.450,221.575 80.428 C 221.231 80.413,220.466 80.905,219.875 81.522 M216.174 85.297 C 215.308 86.223,215.050 86.625,215.600 86.193 C 217.097 85.014,218.101 83.968,217.914 83.781 C 217.823 83.689,217.040 84.372,216.174 85.297 M213.660 88.242 C 213.362 88.578,213.199 88.932,213.295 89.029 C 213.392 89.126,213.798 88.844,214.198 88.402 C 214.597 87.961,214.761 87.607,214.562 87.615 C 214.363 87.624,213.957 87.905,213.660 88.242 M211.600 89.713 C 211.270 89.981,210.737 90.560,210.415 91.000 C 210.094 91.440,210.409 91.271,211.115 90.625 C 212.267 89.572,212.600 89.175,212.300 89.213 C 212.245 89.220,211.930 89.445,211.600 89.713 M178.681 122.717 C 177.867 123.551,177.200 124.355,177.200 124.503 C 177.200 124.788,179.015 123.061,179.949 121.889 C 180.899 120.697,180.222 121.138,178.681 122.717 M175.738 125.817 C 175.608 126.157,175.613 126.547,175.751 126.684 C 175.888 126.821,176.000 126.623,176.000 126.243 C 176.000 125.863,176.180 125.664,176.400 125.800 C 176.620 125.936,176.800 125.857,176.800 125.624 C 176.800 124.975,176.006 125.120,175.738 125.817 M168.262 133.131 C 167.898 133.534,167.600 134.011,167.600 134.193 C 167.600 134.374,167.960 134.107,168.400 133.600 C 168.840 133.093,169.200 132.615,169.200 132.539 C 169.200 132.239,168.895 132.432,168.262 133.131 M160.685 140.714 C 159.648 141.766,158.800 142.756,158.800 142.914 C 158.800 143.071,159.115 142.868,159.500 142.462 C 162.336 139.471,162.934 138.800,162.763 138.800 C 162.657 138.800,161.722 139.661,160.685 140.714 M155.867 145.467 C 155.460 145.873,155.549 146.400,156.024 146.400 C 156.257 146.400,156.344 146.234,156.219 146.030 C 156.093 145.827,156.307 145.578,156.695 145.477 C 157.255 145.331,157.269 145.283,156.767 145.246 C 156.418 145.221,156.013 145.320,155.867 145.467 M147.738 153.817 C 147.608 154.157,147.613 154.547,147.751 154.684 C 147.888 154.821,148.000 154.623,148.000 154.243 C 148.000 153.863,148.180 153.664,148.400 153.800 C 148.620 153.936,148.800 153.857,148.800 153.624 C 148.800 152.975,148.006 153.120,147.738 153.817 M141.000 160.400 C 140.141 161.280,139.585 162.000,139.765 162.000 C 139.945 162.000,140.656 161.395,141.346 160.655 C 142.036 159.915,142.870 159.209,143.200 159.086 C 143.721 158.892,143.719 158.859,143.181 158.832 C 142.841 158.814,141.859 159.520,141.000 160.400 M136.675 164.722 C 136.084 165.339,135.600 165.993,135.600 166.176 C 135.600 166.359,136.095 165.963,136.700 165.297 C 137.305 164.631,138.070 163.991,138.400 163.875 C 138.916 163.693,138.913 163.659,138.375 163.632 C 138.031 163.614,137.266 164.105,136.675 164.722 M128.262 173.131 C 127.898 173.534,127.600 174.011,127.600 174.193 C 127.600 174.374,127.960 174.107,128.400 173.600 C 128.840 173.093,129.200 172.615,129.200 172.539 C 129.200 172.239,128.895 172.432,128.262 173.131 M121.802 179.598 C 121.403 180.039,121.207 180.400,121.367 180.400 C 121.788 180.400,122.928 179.195,122.712 178.979 C 122.611 178.878,122.202 179.156,121.802 179.598 M112.202 189.198 C 111.803 189.639,111.607 190.000,111.767 190.000 C 112.188 190.000,113.328 188.795,113.112 188.579 C 113.011 188.478,112.602 188.756,112.202 189.198 M140.800 207.025 C 140.800 207.325,141.873 208.400,142.171 208.400 C 142.680 208.400,142.351 207.762,141.600 207.293 C 141.160 207.018,140.800 206.898,140.800 207.025 M144.406 210.271 C 144.418 210.884,145.155 211.778,145.426 211.507 C 145.574 211.359,145.404 210.947,145.048 210.590 C 144.691 210.234,144.403 210.091,144.406 210.271 M151.451 217.517 C 151.342 217.695,151.600 218.057,152.026 218.323 C 152.935 218.891,153.045 218.588,152.226 217.768 C 151.910 217.452,151.561 217.339,151.451 217.517 M153.600 219.767 C 153.600 220.188,154.805 221.328,155.021 221.112 C 155.122 221.011,154.844 220.602,154.402 220.202 C 153.961 219.803,153.600 219.607,153.600 219.767 M126.400 220.396 C 126.400 220.820,129.625 224.109,129.835 223.899 C 129.919 223.815,129.180 222.915,128.194 221.900 C 127.207 220.885,126.400 220.208,126.400 220.396 M156.000 222.225 C 156.000 222.525,157.073 223.600,157.371 223.600 C 157.880 223.600,157.551 222.962,156.800 222.493 C 156.360 222.218,156.000 222.098,156.000 222.225 M158.400 224.567 C 158.400 224.988,159.605 226.128,159.821 225.912 C 159.922 225.811,159.644 225.402,159.202 225.002 C 158.761 224.603,158.400 224.407,158.400 224.567 M160.800 227.100 C 160.800 227.269,161.160 227.632,161.600 227.907 C 162.040 228.182,162.400 228.269,162.400 228.100 C 162.400 227.931,162.040 227.568,161.600 227.293 C 161.160 227.018,160.800 226.931,160.800 227.100 M164.406 230.271 C 164.418 230.884,165.155 231.778,165.426 231.507 C 165.574 231.359,165.404 230.947,165.048 230.590 C 164.691 230.234,164.403 230.091,164.406 230.271 M168.000 234.400 C 168.507 234.840,169.099 235.200,169.315 235.200 C 169.531 235.200,169.250 234.840,168.691 234.400 C 168.131 233.960,167.540 233.600,167.376 233.600 C 167.212 233.600,167.493 233.960,168.000 234.400 M171.693 238.000 C 172.162 238.751,172.800 239.080,172.800 238.571 C 172.800 238.273,171.725 237.200,171.425 237.200 C 171.298 237.200,171.418 237.560,171.693 238.000 M173.600 239.829 C 173.600 240.253,174.836 241.297,175.067 241.067 C 175.192 240.941,175.017 240.560,174.676 240.219 C 174.041 239.584,173.600 239.424,173.600 239.829 M176.000 242.225 C 176.000 242.525,177.073 243.600,177.371 243.600 C 177.880 243.600,177.551 242.962,176.800 242.493 C 176.360 242.218,176.000 242.098,176.000 242.225 M178.400 244.567 C 178.400 244.988,179.605 246.128,179.821 245.912 C 179.922 245.811,179.644 245.402,179.202 245.002 C 178.761 244.603,178.400 244.407,178.400 244.567 M180.951 246.498 C 181.108 247.484,181.945 248.589,182.270 248.242 C 182.451 248.049,182.375 247.810,182.100 247.712 C 181.825 247.614,181.600 247.289,181.600 246.990 C 181.600 246.692,181.436 246.346,181.235 246.222 C 181.034 246.098,180.906 246.222,180.951 246.498 M188.643 255.016 C 189.445 255.795,190.173 256.360,190.260 256.273 C 190.471 256.063,187.943 253.600,187.517 253.600 C 187.335 253.600,187.842 254.237,188.643 255.016 M191.200 257.429 C 191.200 257.727,192.275 258.800,192.575 258.800 C 192.702 258.800,192.582 258.440,192.307 258.000 C 191.838 257.249,191.200 256.920,191.200 257.429 M193.600 259.767 C 193.600 260.188,194.805 261.328,195.021 261.112 C 195.122 261.011,194.844 260.602,194.402 260.202 C 193.961 259.803,193.600 259.607,193.600 259.767 M196.000 262.229 C 196.000 262.527,197.075 263.600,197.375 263.600 C 197.502 263.600,197.382 263.240,197.107 262.800 C 196.638 262.049,196.000 261.720,196.000 262.229 M198.667 264.667 C 198.541 264.792,198.708 265.165,199.038 265.495 C 199.368 265.825,199.741 265.992,199.867 265.867 C 199.992 265.741,199.825 265.368,199.495 265.038 C 199.165 264.708,198.792 264.541,198.667 264.667 M171.402 265.602 C 171.802 266.044,172.211 266.322,172.312 266.221 C 172.528 266.005,171.388 264.800,170.967 264.800 C 170.807 264.800,171.003 265.161,171.402 265.602 M173.200 267.367 C 173.200 267.788,174.405 268.928,174.621 268.712 C 174.722 268.611,174.444 268.202,174.002 267.802 C 173.561 267.403,173.200 267.207,173.200 267.367 M204.400 270.278 C 204.400 270.498,204.760 271.093,205.200 271.600 C 205.640 272.107,206.000 272.342,206.000 272.122 C 206.000 271.902,205.640 271.307,205.200 270.800 C 204.760 270.293,204.400 270.058,204.400 270.278 M177.693 272.000 C 177.968 272.440,178.331 272.800,178.500 272.800 C 178.669 272.800,178.582 272.440,178.307 272.000 C 178.032 271.560,177.669 271.200,177.500 271.200 C 177.331 271.200,177.418 271.560,177.693 272.000 M206.893 273.200 C 207.168 273.640,207.531 274.000,207.700 274.000 C 207.869 274.000,207.782 273.640,207.507 273.200 C 207.232 272.760,206.869 272.400,206.700 272.400 C 206.531 272.400,206.618 272.760,206.893 273.200 M209.061 275.424 C 209.624 275.988,210.154 276.379,210.238 276.295 C 210.459 276.074,208.838 274.400,208.403 274.400 C 208.201 274.400,208.497 274.861,209.061 275.424 M211.200 277.367 C 211.200 277.788,212.405 278.928,212.621 278.712 C 212.722 278.611,212.444 278.202,212.002 277.802 C 211.561 277.403,211.200 277.207,211.200 277.367 M213.600 279.767 C 213.600 280.188,214.805 281.328,215.021 281.112 C 215.122 281.011,214.844 280.602,214.402 280.202 C 213.961 279.803,213.600 279.607,213.600 279.767 M186.800 280.948 C 186.800 281.439,188.834 283.299,189.091 283.042 C 189.224 282.909,189.258 282.755,189.167 282.700 C 189.075 282.645,188.505 282.164,187.900 281.630 C 187.295 281.097,186.800 280.790,186.800 280.948 M216.267 282.267 C 216.141 282.392,216.308 282.765,216.638 283.095 C 216.968 283.425,217.341 283.592,217.467 283.467 C 217.592 283.341,217.425 282.968,217.095 282.638 C 216.765 282.308,216.392 282.141,216.267 282.267 M218.400 284.629 C 218.400 284.927,219.475 286.000,219.775 286.000 C 219.902 286.000,219.782 285.640,219.507 285.200 C 219.038 284.449,218.400 284.120,218.400 284.629 M190.800 285.029 C 190.800 285.453,192.036 286.497,192.267 286.267 C 192.392 286.141,192.217 285.760,191.876 285.419 C 191.241 284.784,190.800 284.624,190.800 285.029 M224.800 291.029 C 224.800 291.453,226.036 292.497,226.267 292.267 C 226.392 292.141,226.217 291.760,225.876 291.419 C 225.241 290.784,224.800 290.624,224.800 291.029 M226.800 292.757 C 226.800 293.265,228.381 294.952,228.627 294.707 C 228.749 294.585,228.388 294.024,227.824 293.461 C 227.261 292.897,226.800 292.581,226.800 292.757 M198.800 293.029 C 198.800 293.453,200.036 294.497,200.267 294.267 C 200.392 294.141,200.217 293.760,199.876 293.419 C 199.241 292.784,198.800 292.624,198.800 293.029 M231.200 297.425 C 231.200 297.725,232.273 298.800,232.571 298.800 C 233.080 298.800,232.751 298.162,232.000 297.693 C 231.560 297.418,231.200 297.298,231.200 297.425 M203.600 297.818 C 203.600 298.120,205.506 300.000,205.812 300.000 C 206.159 300.000,204.269 297.649,203.900 297.622 C 203.735 297.610,203.600 297.698,203.600 297.818 M233.600 299.767 C 233.600 300.188,234.805 301.328,235.021 301.112 C 235.122 301.011,234.844 300.602,234.402 300.202 C 233.961 299.803,233.600 299.607,233.600 299.767 M236.267 302.267 C 236.141 302.392,236.308 302.765,236.638 303.095 C 236.968 303.425,237.341 303.592,237.467 303.467 C 237.592 303.341,237.425 302.968,237.095 302.638 C 236.765 302.308,236.392 302.141,236.267 302.267 M238.400 304.629 C 238.400 305.053,239.636 306.097,239.867 305.867 C 239.992 305.741,239.817 305.360,239.476 305.019 C 238.841 304.384,238.400 304.224,238.400 304.629 M210.800 305.029 C 210.800 305.453,212.036 306.497,212.267 306.267 C 212.392 306.141,212.217 305.760,211.876 305.419 C 211.241 304.784,210.800 304.624,210.800 305.029 M245.063 311.104 C 244.965 311.267,245.126 311.623,245.421 311.896 C 245.716 312.169,246.038 312.259,246.137 312.096 C 246.235 311.933,246.074 311.577,245.779 311.304 C 245.484 311.031,245.162 310.941,245.063 311.104 M246.800 312.753 C 246.800 313.295,248.718 315.200,249.262 315.200 C 249.497 315.200,249.337 314.885,248.907 314.500 C 248.477 314.115,247.827 313.472,247.463 313.071 C 247.098 312.671,246.800 312.528,246.800 312.753 M251.200 317.367 C 251.200 317.788,252.405 318.928,252.621 318.712 C 252.722 318.611,252.444 318.202,252.002 317.802 C 251.561 317.403,251.200 317.207,251.200 317.367 M223.600 317.818 C 223.600 318.212,225.644 320.090,225.848 319.885 C 225.958 319.775,225.579 319.216,225.006 318.642 C 223.977 317.613,223.600 317.392,223.600 317.818 M256.000 322.478 C 256.000 322.702,256.261 322.786,256.580 322.663 C 256.967 322.515,257.085 322.633,256.937 323.020 C 256.814 323.339,256.927 323.600,257.187 323.600 C 257.929 323.600,257.481 322.287,256.700 322.173 C 256.315 322.117,256.000 322.254,256.000 322.478 M258.400 324.629 C 258.400 325.051,259.502 325.964,259.733 325.733 C 259.859 325.608,259.713 325.256,259.410 324.952 C 258.833 324.376,258.400 324.237,258.400 324.629 M230.800 325.029 C 230.800 325.453,232.036 326.497,232.267 326.267 C 232.392 326.141,232.217 325.760,231.876 325.419 C 231.241 324.784,230.800 324.624,230.800 325.029 M260.800 327.029 C 260.800 327.453,262.036 328.497,262.267 328.267 C 262.392 328.141,262.217 327.760,261.876 327.419 C 261.241 326.784,260.800 326.624,260.800 327.029 M233.200 327.429 C 233.200 327.853,234.436 328.897,234.667 328.667 C 234.792 328.541,234.617 328.160,234.276 327.819 C 233.641 327.184,233.200 327.024,233.200 327.429 M237.200 331.429 C 237.200 331.853,238.436 332.897,238.667 332.667 C 238.792 332.541,238.617 332.160,238.276 331.819 C 237.641 331.184,237.200 331.024,237.200 331.429 M239.600 333.829 C 239.600 334.253,240.836 335.297,241.067 335.067 C 241.192 334.941,241.017 334.560,240.676 334.219 C 240.041 333.584,239.600 333.424,239.600 333.829 M271.200 337.429 C 271.200 337.727,272.275 338.800,272.575 338.800 C 272.702 338.800,272.582 338.440,272.307 338.000 C 271.838 337.249,271.200 336.920,271.200 337.429 M244.400 338.629 C 244.400 338.927,245.475 340.000,245.775 340.000 C 245.902 340.000,245.782 339.640,245.507 339.200 C 245.038 338.449,244.400 338.120,244.400 338.629 M246.800 341.029 C 246.800 341.453,248.036 342.497,248.267 342.267 C 248.392 342.141,248.217 341.760,247.876 341.419 C 247.241 340.784,246.800 340.624,246.800 341.029 M276.000 342.229 C 276.000 342.527,277.075 343.600,277.375 343.600 C 277.502 343.600,277.382 343.240,277.107 342.800 C 276.638 342.049,276.000 341.720,276.000 342.229 M250.800 345.025 C 250.800 345.325,251.873 346.400,252.171 346.400 C 252.680 346.400,252.351 345.762,251.600 345.293 C 251.160 345.018,250.800 344.898,250.800 345.025 M256.430 350.689 C 257.596 351.997,258.548 352.785,258.737 352.597 C 258.903 352.430,256.031 349.600,255.696 349.600 C 255.566 349.600,255.897 350.090,256.430 350.689 M285.067 351.067 C 284.941 351.192,285.108 351.565,285.438 351.895 C 285.768 352.225,286.141 352.392,286.267 352.267 C 286.392 352.141,286.225 351.768,285.895 351.438 C 285.565 351.108,285.192 350.941,285.067 351.067 M260.202 354.402 C 260.602 354.844,261.011 355.122,261.112 355.021 C 261.328 354.805,260.188 353.600,259.767 353.600 C 259.607 353.600,259.803 353.961,260.202 354.402 M264.806 358.671 C 264.818 359.284,265.555 360.178,265.826 359.907 C 265.974 359.759,265.804 359.347,265.448 358.990 C 265.091 358.634,264.803 358.491,264.806 358.671 M267.051 361.117 C 266.942 361.295,267.200 361.657,267.626 361.923 C 268.535 362.491,268.645 362.188,267.826 361.368 C 267.510 361.052,267.161 360.939,267.051 361.117 M270.800 365.029 C 270.800 365.453,272.036 366.497,272.267 366.267 C 272.392 366.141,272.217 365.760,271.876 365.419 C 271.241 364.784,270.800 364.624,270.800 365.029"/><path id="path4" fill="#d4d4d4" fill-rule="evenodd" stroke="none" d="M279.031 26.450 C 279.150 26.643,279.597 26.800,280.024 26.800 C 280.451 26.800,280.800 26.643,280.800 26.450 C 280.800 26.258,280.353 26.100,279.807 26.100 C 279.261 26.100,278.912 26.258,279.031 26.450 M283.000 27.200 C 282.864 27.420,283.134 27.600,283.600 27.600 C 284.066 27.600,284.336 27.420,284.200 27.200 C 284.064 26.980,283.794 26.800,283.600 26.800 C 283.406 26.800,283.136 26.980,283.000 27.200 M284.800 27.829 C 284.800 28.407,286.073 29.239,286.701 29.072 C 287.292 28.914,287.262 28.840,286.500 28.596 C 286.005 28.437,285.600 28.148,285.600 27.953 C 285.600 27.759,285.420 27.600,285.200 27.600 C 284.980 27.600,284.800 27.703,284.800 27.829 M269.295 31.911 C 267.477 33.788,266.068 35.402,266.164 35.498 C 266.347 35.680,273.200 28.966,273.200 28.606 C 273.200 28.043,272.322 28.787,269.295 31.911 M287.550 29.400 C 287.339 30.245,287.467 30.685,288.086 31.247 C 288.479 31.603,288.800 32.188,288.800 32.547 C 288.800 32.906,288.980 33.200,289.200 33.200 C 289.941 33.200,289.608 31.972,288.592 30.956 C 288.038 30.402,287.689 29.780,287.816 29.574 C 287.943 29.368,287.947 29.200,287.824 29.200 C 287.701 29.200,287.578 29.290,287.550 29.400 M289.867 33.467 C 289.720 33.613,289.600 35.143,289.600 36.867 C 289.600 38.689,289.433 40.000,289.200 40.000 C 288.980 40.000,288.800 40.294,288.800 40.653 C 288.800 41.012,288.485 41.600,288.100 41.959 C 287.715 42.318,287.208 42.957,286.973 43.379 C 286.739 43.801,286.219 44.339,285.819 44.573 C 285.418 44.808,284.402 45.720,283.561 46.600 C 282.720 47.480,281.753 48.470,281.412 48.800 C 275.661 54.374,267.200 62.937,267.200 63.184 C 267.200 63.362,266.790 63.777,266.289 64.105 C 265.353 64.718,262.400 67.554,262.400 67.840 C 262.400 68.080,260.832 69.600,260.584 69.600 C 260.466 69.600,257.762 72.255,254.576 75.500 C 251.389 78.745,248.651 81.528,248.491 81.685 C 247.024 83.122,244.508 85.657,244.131 86.077 C 243.716 86.539,242.800 87.447,241.341 88.843 C 240.638 89.515,229.455 100.705,229.000 101.191 C 228.780 101.426,223.145 107.060,216.478 113.709 C 203.318 126.836,203.189 126.965,202.600 127.605 C 202.380 127.844,201.890 128.346,201.510 128.720 C 191.711 138.377,132.000 198.103,132.000 198.247 C 132.000 198.572,139.352 205.600,139.692 205.600 C 139.861 205.600,140.000 205.826,140.000 206.102 C 140.000 206.379,140.540 206.844,141.200 207.136 C 141.931 207.459,142.400 207.967,142.400 208.434 C 142.400 208.858,142.676 209.200,143.018 209.200 C 143.729 209.200,145.312 210.672,145.707 211.701 C 145.854 212.085,146.251 212.400,146.587 212.400 C 146.924 212.400,147.200 212.580,147.200 212.800 C 147.200 213.319,148.681 214.800,149.200 214.800 C 149.420 214.800,149.600 215.070,149.600 215.400 C 149.600 215.730,149.780 216.000,150.000 216.000 C 150.220 216.000,150.400 216.251,150.400 216.557 C 150.400 216.864,150.664 217.216,150.987 217.340 C 152.935 218.087,151.023 215.811,142.817 207.617 C 137.748 202.555,133.600 198.319,133.600 198.205 C 133.600 198.091,149.985 181.609,170.012 161.579 C 191.382 140.206,206.311 124.979,206.150 124.719 C 205.991 124.462,206.058 124.389,206.310 124.544 C 206.725 124.801,287.200 44.708,287.200 44.037 C 287.200 43.862,287.740 43.154,288.400 42.463 C 289.060 41.772,289.600 40.946,289.600 40.627 C 289.600 40.308,289.789 39.930,290.020 39.788 C 290.353 39.582,290.537 33.200,290.210 33.200 C 290.168 33.200,290.013 33.320,289.867 33.467 M258.485 42.682 C 257.761 43.463,257.254 44.188,257.358 44.291 C 257.553 44.486,260.400 41.793,260.400 41.413 C 260.400 40.902,259.707 41.361,258.485 42.682 M250.646 50.646 C 248.504 52.757,246.838 54.572,246.945 54.678 C 247.051 54.785,248.878 53.132,251.005 51.005 C 253.132 48.878,254.797 47.064,254.706 46.973 C 254.616 46.882,252.788 48.535,250.646 50.646 M239.832 61.432 C 238.805 62.458,238.050 63.384,238.154 63.488 C 238.259 63.592,239.184 62.837,240.211 61.811 C 241.237 60.784,241.992 59.859,241.888 59.754 C 241.784 59.650,240.858 60.405,239.832 61.432 M233.660 67.442 C 232.931 68.266,233.400 68.657,234.181 67.876 C 234.521 67.536,234.800 67.154,234.800 67.029 C 234.800 66.609,234.206 66.824,233.660 67.442 M230.860 70.251 C 230.343 70.802,230.017 71.350,230.136 71.469 C 230.352 71.685,232.400 69.830,232.400 69.418 C 232.400 68.947,231.756 69.295,230.860 70.251 M228.060 73.042 C 227.331 73.866,227.800 74.257,228.581 73.476 C 228.921 73.136,229.200 72.754,229.200 72.629 C 229.200 72.209,228.606 72.424,228.060 73.042 M222.461 78.655 C 221.725 79.425,221.218 80.151,221.334 80.268 C 221.545 80.479,224.400 77.821,224.400 77.413 C 224.400 76.908,223.709 77.350,222.461 78.655 M213.260 87.851 C 212.743 88.402,212.417 88.950,212.536 89.069 C 212.752 89.285,214.800 87.430,214.800 87.018 C 214.800 86.547,214.156 86.895,213.260 87.851 M202.082 99.075 C 199.818 101.398,198.042 103.375,198.136 103.470 C 198.320 103.653,206.800 95.378,206.800 95.016 C 206.800 94.396,205.833 95.228,202.082 99.075 M193.257 107.868 C 191.418 109.726,190.010 111.343,190.126 111.460 C 190.334 111.667,197.200 105.014,197.200 104.606 C 197.200 104.043,196.319 104.772,193.257 107.868 M184.482 116.675 C 182.218 118.998,180.449 120.982,180.552 121.085 C 180.655 121.188,182.238 119.758,184.070 117.906 C 188.429 113.501,189.418 112.395,188.970 112.426 C 188.766 112.440,186.747 114.352,184.482 116.675 M172.863 128.259 C 171.687 129.469,170.805 130.538,170.902 130.636 C 171.097 130.830,175.600 126.612,175.600 126.235 C 175.600 125.659,174.851 126.213,172.863 128.259 M164.863 136.259 C 163.687 137.469,162.819 138.553,162.934 138.667 C 163.140 138.873,167.600 134.611,167.600 134.209 C 167.600 133.660,166.822 134.243,164.863 136.259 M154.460 146.642 C 153.731 147.466,154.200 147.857,154.981 147.076 C 155.321 146.736,155.600 146.354,155.600 146.229 C 155.600 145.809,155.006 146.024,154.460 146.642 M151.260 149.874 C 150.523 150.633,149.985 151.318,150.064 151.397 C 150.241 151.574,153.200 148.972,153.200 148.639 C 153.200 148.134,152.550 148.548,151.260 149.874 M146.460 154.642 C 145.731 155.466,146.200 155.857,146.981 155.076 C 147.321 154.736,147.600 154.354,147.600 154.229 C 147.600 153.809,147.006 154.024,146.460 154.642 M143.723 157.497 C 143.241 158.092,142.915 158.648,142.999 158.732 C 143.171 158.904,145.200 156.956,145.200 156.618 C 145.200 156.100,144.535 156.495,143.723 157.497 M138.460 162.642 C 137.731 163.466,138.200 163.857,138.981 163.076 C 139.321 162.736,139.600 162.354,139.600 162.229 C 139.600 161.809,139.006 162.024,138.460 162.642 M134.460 166.642 C 133.731 167.466,134.200 167.857,134.981 167.076 C 135.321 166.736,135.600 166.354,135.600 166.229 C 135.600 165.809,135.006 166.024,134.460 166.642 M131.818 169.418 C 131.187 169.960,130.745 170.478,130.835 170.568 C 130.926 170.658,131.516 170.288,132.146 169.745 C 132.777 169.203,133.219 168.685,133.129 168.596 C 133.039 168.506,132.449 168.876,131.818 169.418 M124.866 176.273 C 123.692 177.478,122.824 178.557,122.937 178.670 C 123.141 178.874,127.600 174.608,127.600 174.209 C 127.600 173.673,126.832 174.253,124.866 176.273 M117.400 183.751 C 113.824 187.398,112.435 189.031,113.786 188.000 C 114.870 187.172,121.200 180.859,121.200 180.606 C 121.200 180.043,120.329 180.764,117.400 183.751 M110.074 191.082 C 109.564 191.631,109.238 192.171,109.349 192.283 C 109.556 192.489,111.600 190.614,111.600 190.218 C 111.600 189.762,110.966 190.121,110.074 191.082 M108.400 193.800 C 108.400 194.130,108.580 194.400,108.800 194.400 C 109.020 194.400,109.200 194.130,109.200 193.800 C 109.200 193.470,109.020 193.200,108.800 193.200 C 108.580 193.200,108.400 193.470,108.400 193.800 M107.650 197.984 C 107.722 201.158,108.400 201.577,108.400 198.447 C 108.400 197.127,108.219 195.935,107.997 195.798 C 107.742 195.641,107.615 196.440,107.650 197.984 M110.000 204.969 C 110.000 205.557,116.085 211.195,116.465 210.960 C 116.717 210.804,116.816 210.850,116.685 211.063 C 116.421 211.490,122.694 218.120,123.742 218.522 C 124.169 218.686,124.400 218.568,124.400 218.187 C 124.400 217.864,124.129 217.600,123.798 217.600 C 123.162 217.600,119.200 213.774,119.200 213.159 C 119.200 212.962,118.969 212.800,118.686 212.800 C 118.404 212.800,117.854 212.260,117.464 211.600 C 117.074 210.940,116.576 210.400,116.358 210.400 C 116.140 210.400,114.719 209.140,113.200 207.600 C 110.685 205.050,110.000 204.487,110.000 204.969 M152.000 217.600 C 152.000 217.820,152.180 218.000,152.400 218.000 C 152.620 218.000,152.800 218.317,152.800 218.705 C 152.800 219.093,153.205 219.588,153.700 219.805 C 154.195 220.022,154.764 220.574,154.965 221.031 C 155.166 221.488,155.841 222.089,156.465 222.365 C 157.089 222.641,157.600 223.169,157.600 223.539 C 157.600 223.908,158.005 224.388,158.500 224.605 C 158.995 224.822,159.564 225.374,159.765 225.831 C 159.966 226.288,160.641 226.889,161.265 227.165 C 161.942 227.464,162.400 227.976,162.400 228.434 C 162.400 228.855,162.625 229.200,162.900 229.200 C 163.565 229.201,165.389 230.820,165.715 231.700 C 165.858 232.085,166.251 232.400,166.587 232.400 C 166.924 232.400,167.201 232.625,167.201 232.900 C 167.202 233.175,167.745 233.760,168.408 234.200 C 169.071 234.640,169.834 235.495,170.104 236.100 C 170.374 236.705,170.834 237.200,171.126 237.200 C 171.851 237.200,172.800 238.205,172.800 238.971 C 172.800 239.317,173.083 239.600,173.429 239.600 C 174.195 239.600,175.200 240.549,175.200 241.274 C 175.200 241.566,175.740 242.044,176.400 242.336 C 177.060 242.628,177.600 243.169,177.600 243.539 C 177.600 243.908,178.005 244.388,178.500 244.605 C 178.995 244.822,179.578 245.405,179.795 245.900 C 180.222 246.874,180.982 247.077,181.438 246.338 C 181.615 246.052,181.548 245.985,181.262 246.162 C 181.008 246.319,180.800 246.256,180.800 246.022 C 180.800 245.612,152.609 217.200,152.201 217.200 C 152.091 217.200,152.000 217.380,152.000 217.600 M125.362 220.462 C 125.195 220.731,125.251 220.816,125.496 220.664 C 125.727 220.521,126.029 220.699,126.168 221.060 C 126.306 221.420,126.509 221.625,126.619 221.515 C 126.902 221.232,126.383 220.000,125.981 220.000 C 125.797 220.000,125.519 220.208,125.362 220.462 M130.991 225.991 C 132.069 227.086,133.025 227.908,133.114 227.819 C 133.318 227.616,129.730 224.000,129.326 224.000 C 129.163 224.000,129.912 224.896,130.991 225.991 M181.600 247.200 C 181.600 247.420,181.780 247.600,182.000 247.600 C 182.220 247.600,182.400 247.960,182.400 248.400 C 182.400 248.844,182.667 249.200,183.000 249.200 C 183.330 249.200,183.600 249.380,183.600 249.600 C 183.600 249.820,183.858 250.000,184.173 250.000 C 184.488 250.000,184.851 250.331,184.980 250.736 C 185.108 251.141,185.660 251.711,186.207 252.004 C 186.753 252.296,187.201 252.730,187.201 252.968 C 187.202 253.205,187.745 253.760,188.408 254.200 C 189.071 254.640,189.834 255.495,190.104 256.100 C 190.374 256.705,190.896 257.200,191.264 257.200 C 191.632 257.200,192.159 257.711,192.435 258.335 C 192.711 258.959,193.312 259.634,193.769 259.835 C 194.226 260.036,194.778 260.605,194.995 261.100 C 195.212 261.595,195.692 262.000,196.061 262.000 C 196.431 262.000,196.972 262.540,197.264 263.200 C 197.556 263.860,197.931 264.400,198.098 264.400 C 198.264 264.400,198.496 264.394,198.614 264.386 C 199.059 264.356,200.000 265.568,200.000 266.171 C 200.000 266.533,200.339 266.800,200.800 266.800 C 201.258 266.800,201.600 267.067,201.600 267.424 C 201.600 267.767,201.780 267.936,202.000 267.800 C 202.220 267.664,202.400 267.923,202.400 268.376 C 202.400 268.864,202.661 269.200,203.040 269.200 C 203.700 269.200,206.000 271.408,206.000 272.042 C 206.000 272.239,206.240 272.400,206.532 272.400 C 206.825 272.400,207.304 272.847,207.596 273.393 C 207.889 273.940,208.448 274.488,208.839 274.612 C 209.230 274.736,209.772 275.340,210.044 275.954 C 210.315 276.567,210.912 277.234,211.369 277.435 C 211.826 277.636,212.365 278.175,212.566 278.634 C 212.768 279.092,213.293 279.632,213.734 279.834 C 214.174 280.035,214.729 280.560,214.967 281.000 C 215.541 282.061,216.118 282.442,216.528 282.032 C 216.811 281.749,182.352 246.800,181.791 246.800 C 181.686 246.800,181.600 246.980,181.600 247.200 M169.802 264.802 C 170.202 265.244,170.611 265.522,170.712 265.421 C 170.928 265.205,169.788 264.000,169.367 264.000 C 169.207 264.000,169.403 264.361,169.802 264.802 M173.002 268.002 C 173.402 268.444,173.811 268.722,173.912 268.621 C 174.128 268.405,172.988 267.200,172.567 267.200 C 172.407 267.200,172.603 267.561,173.002 268.002 M216.800 282.400 C 216.800 282.620,216.980 282.800,217.200 282.800 C 217.420 282.800,217.600 283.160,217.600 283.600 C 217.600 284.122,217.867 284.400,218.366 284.400 C 218.833 284.400,219.341 284.869,219.664 285.600 C 219.956 286.260,220.430 286.800,220.716 286.800 C 221.003 286.800,221.544 287.339,221.919 287.997 C 222.293 288.656,222.807 289.196,223.061 289.197 C 223.630 289.201,229.600 295.046,229.600 295.600 C 229.600 295.820,229.780 296.000,230.000 296.000 C 230.220 296.000,230.400 296.226,230.400 296.502 C 230.400 296.779,230.940 297.244,231.600 297.536 C 232.260 297.828,232.800 298.369,232.800 298.739 C 232.800 299.108,233.205 299.588,233.700 299.805 C 234.195 300.022,234.778 300.605,234.995 301.100 C 235.352 301.915,235.514 302.032,236.214 301.986 C 236.659 301.956,237.600 303.168,237.600 303.771 C 237.600 304.117,237.883 304.400,238.229 304.400 C 238.574 304.400,239.114 304.657,239.429 304.971 C 239.743 305.286,240.000 305.826,240.000 306.171 C 240.000 306.517,240.270 306.800,240.600 306.800 C 240.930 306.800,241.200 306.980,241.200 307.200 C 241.200 307.420,241.470 307.600,241.800 307.600 C 242.130 307.600,242.400 307.916,242.400 308.302 C 242.400 308.698,242.924 309.237,243.600 309.536 C 244.260 309.828,244.800 310.358,244.800 310.714 C 244.800 311.173,244.924 311.236,245.228 310.932 C 245.594 310.566,217.710 282.000,216.987 282.000 C 216.884 282.000,216.800 282.180,216.800 282.400 M246.200 312.000 C 246.064 312.220,246.152 312.400,246.396 312.400 C 246.945 312.400,250.400 316.015,250.400 316.590 C 250.400 316.821,250.790 317.188,251.267 317.405 C 251.744 317.622,252.329 318.160,252.567 318.600 C 252.805 319.040,253.180 319.528,253.400 319.685 C 253.620 319.841,254.115 320.196,254.500 320.473 C 254.885 320.750,255.201 321.162,255.203 321.388 C 255.208 322.029,257.145 322.812,257.462 322.300 C 257.616 322.051,257.533 321.994,257.262 322.162 C 257.008 322.319,256.800 322.255,256.800 322.020 C 256.800 321.619,247.019 311.600,246.628 311.600 C 246.528 311.600,246.336 311.780,246.200 312.000 M257.600 323.600 C 257.600 324.061,257.867 324.400,258.229 324.400 C 258.832 324.400,260.044 325.341,260.014 325.786 C 259.959 326.612,260.073 326.800,260.629 326.800 C 261.395 326.800,262.400 327.749,262.400 328.474 C 262.400 328.766,262.895 329.226,263.500 329.497 C 264.105 329.768,264.907 330.532,265.281 331.195 C 265.656 331.858,266.241 332.400,266.581 332.400 C 266.922 332.400,267.200 332.676,267.200 333.013 C 267.200 333.349,267.515 333.742,267.900 333.885 C 268.780 334.211,270.399 336.035,270.400 336.700 C 270.400 336.975,270.745 337.200,271.166 337.200 C 271.633 337.200,272.141 337.669,272.464 338.400 C 272.756 339.060,273.221 339.600,273.498 339.600 C 273.774 339.600,274.000 339.780,274.000 340.000 C 274.000 340.220,274.270 340.400,274.600 340.400 C 274.933 340.400,275.200 340.756,275.200 341.200 C 275.200 341.722,275.467 342.000,275.966 342.000 C 276.433 342.000,276.941 342.469,277.264 343.200 C 277.556 343.860,278.012 344.400,278.278 344.400 C 278.543 344.400,278.924 344.693,279.125 345.051 C 279.364 345.478,279.582 345.553,279.759 345.267 C 279.984 344.903,258.364 322.800,257.784 322.800 C 257.683 322.800,257.600 323.160,257.600 323.600 M280.000 345.914 C 280.000 346.306,280.540 346.946,281.200 347.336 C 281.860 347.726,282.400 348.261,282.400 348.525 C 282.400 348.789,282.940 349.244,283.600 349.536 C 284.260 349.828,284.800 350.358,284.800 350.714 C 284.800 351.187,284.919 351.241,285.244 350.916 C 285.569 350.591,284.982 349.767,283.051 347.836 C 280.182 344.967,280.000 344.853,280.000 345.914 M285.600 351.112 C 285.600 351.283,285.960 351.683,286.400 352.000 C 286.840 352.317,287.200 352.857,287.200 353.200 C 287.200 353.543,287.560 354.083,288.000 354.400 C 288.440 354.717,288.800 355.286,288.800 355.665 C 288.800 356.043,288.980 356.464,289.200 356.600 C 289.933 357.053,289.612 355.364,288.800 354.492 C 288.360 354.020,288.000 353.454,288.000 353.235 C 288.000 352.844,286.138 350.800,285.782 350.800 C 285.682 350.800,285.600 350.940,285.600 351.112 M289.600 359.824 C 289.600 361.471,289.749 362.355,290.000 362.200 C 290.220 362.064,290.400 360.883,290.400 359.576 C 290.400 358.259,290.222 357.200,290.000 357.200 C 289.774 357.200,289.600 358.341,289.600 359.824 M263.643 358.500 C 264.170 358.995,264.999 359.910,265.485 360.534 C 265.971 361.157,266.547 361.556,266.766 361.421 C 267.377 361.043,266.807 360.000,265.991 360.000 C 265.571 360.000,265.044 359.495,264.736 358.800 C 264.414 358.073,263.905 357.600,263.444 357.600 C 262.755 357.600,262.774 357.685,263.643 358.500 M266.800 361.773 C 266.800 362.536,272.916 368.044,273.317 367.643 C 273.641 367.319,273.628 367.200,273.269 367.200 C 272.590 367.200,269.200 363.749,269.200 363.057 C 269.200 362.747,268.885 362.382,268.500 362.246 C 268.115 362.111,267.575 361.895,267.300 361.766 C 267.025 361.638,266.800 361.641,266.800 361.773 M288.800 363.172 C 288.800 363.925,288.480 364.434,286.800 366.353 C 285.866 367.420,283.744 368.800,283.038 368.800 C 282.687 368.800,282.400 368.983,282.400 369.206 C 282.400 369.430,282.928 369.573,283.572 369.523 C 284.217 369.474,284.656 369.291,284.549 369.117 C 284.441 368.943,284.633 368.800,284.976 368.800 C 285.319 368.800,285.600 368.663,285.600 368.495 C 285.600 368.327,286.005 368.012,286.500 367.795 C 286.995 367.578,287.578 366.995,287.795 366.500 C 288.012 366.005,288.327 365.600,288.495 365.600 C 288.663 365.600,288.800 365.319,288.800 364.976 C 288.800 364.633,288.942 364.440,289.115 364.548 C 289.288 364.655,289.466 364.314,289.509 363.791 C 289.552 363.268,289.411 362.730,289.194 362.596 C 288.977 362.462,288.800 362.721,288.800 363.172 M274.000 368.256 C 274.000 368.703,275.373 369.574,276.100 369.587 C 276.485 369.594,276.800 369.420,276.800 369.200 C 276.800 368.980,276.350 368.800,275.800 368.800 C 275.250 368.800,274.800 368.620,274.800 368.400 C 274.800 368.180,274.620 368.000,274.400 368.000 C 274.180 368.000,274.000 368.115,274.000 368.256 M278.200 370.000 C 278.336 370.220,279.056 370.400,279.800 370.400 C 280.544 370.400,281.264 370.220,281.400 370.000 C 281.551 369.755,280.930 369.600,279.800 369.600 C 278.670 369.600,278.049 369.755,278.200 370.000"/></g></svg>