<svg xmlns="http://www.w3.org/2000/svg" xmlns:xlink="http://www.w3.org/1999/xlink" id="svg" width="400" height="400" version="1.1" viewBox="0 0 400 400"><g id="svgg"><path id="path0" fill="#fcfcfc" fill-rule="evenodd" stroke="none" d="M119.200 30.800 C 118.870 31.013,118.133 31.191,117.562 31.194 C 116.991 31.197,116.198 31.560,115.800 32.000 C 115.402 32.440,114.838 32.800,114.547 32.800 C 114.256 32.800,113.711 33.295,113.335 33.900 C 112.960 34.505,112.299 35.400,111.866 35.890 C 110.664 37.250,110.715 43.232,111.940 44.536 C 112.413 45.040,112.800 45.549,112.800 45.668 C 112.800 45.787,147.808 80.875,190.596 123.642 C 233.384 166.409,268.394 201.512,268.396 201.649 C 268.399 201.848,121.479 348.837,115.343 354.774 C 113.129 356.916,111.200 359.585,111.200 360.505 C 111.200 360.916,111.000 361.627,110.755 362.084 C 110.165 363.186,110.781 365.444,112.500 368.485 C 113.135 369.608,113.857 370.400,114.246 370.400 C 114.412 370.400,114.920 370.731,115.374 371.135 C 116.612 372.236,120.541 373.047,121.819 372.464 C 122.379 372.209,123.160 372.000,123.555 372.000 C 124.327 372.000,126.998 369.846,128.976 367.627 C 131.069 365.280,133.997 362.487,134.612 362.251 C 134.935 362.127,135.200 361.831,135.200 361.593 C 135.200 361.355,136.573 359.864,138.251 358.280 C 139.929 356.696,141.848 354.815,142.515 354.100 C 143.183 353.385,143.970 352.800,144.264 352.800 C 144.559 352.800,144.800 352.480,144.800 352.088 C 144.800 351.697,145.188 351.112,145.662 350.788 C 146.137 350.465,146.807 349.885,147.151 349.500 C 147.496 349.115,148.008 348.800,148.289 348.800 C 148.570 348.800,148.800 348.530,148.800 348.200 C 148.800 347.870,148.957 347.600,149.148 347.600 C 149.340 347.600,149.925 346.971,150.448 346.203 C 150.972 345.434,151.548 344.804,151.729 344.803 C 152.129 344.799,155.992 340.723,155.997 340.300 C 155.999 340.135,156.270 340.000,156.600 340.000 C 156.930 340.000,157.200 339.835,157.200 339.633 C 157.200 339.047,161.230 335.200,161.843 335.200 C 162.150 335.200,162.400 334.975,162.400 334.699 C 162.400 334.035,167.093 329.288,168.050 328.984 C 168.463 328.853,168.800 328.488,168.800 328.173 C 168.800 327.858,168.984 327.600,169.209 327.600 C 169.433 327.600,169.809 327.180,170.043 326.666 C 170.277 326.152,170.993 325.422,171.634 325.043 C 172.275 324.665,172.800 324.192,172.800 323.994 C 172.800 323.551,180.192 316.154,181.475 315.314 C 181.984 314.981,182.400 314.556,182.400 314.370 C 182.400 313.966,185.253 311.004,186.995 309.600 C 187.677 309.050,189.463 307.250,190.964 305.600 C 192.464 303.950,194.031 302.437,194.446 302.239 C 194.861 302.040,195.200 301.730,195.200 301.550 C 195.200 301.269,201.075 295.339,208.483 288.144 C 209.647 287.013,212.526 284.133,214.881 281.744 C 217.235 279.355,219.395 277.188,219.681 276.929 C 219.966 276.669,221.883 274.734,223.940 272.629 C 225.997 270.523,227.851 268.800,228.059 268.800 C 228.479 268.800,230.367 266.774,230.387 266.303 C 230.400 265.996,233.500 262.895,239.160 257.527 C 240.942 255.837,242.400 254.378,242.400 254.285 C 242.400 253.985,246.002 250.400,246.306 250.398 C 246.815 250.395,250.400 246.732,250.400 246.215 C 250.400 245.872,256.444 240.000,256.797 240.000 C 256.994 240.000,257.417 239.626,257.737 239.169 C 258.795 237.658,265.003 231.425,266.856 230.012 C 267.857 229.249,269.289 227.768,270.038 226.721 C 270.787 225.675,271.625 224.814,271.900 224.809 C 272.175 224.804,272.400 224.648,272.400 224.461 C 272.400 224.026,273.804 222.400,274.179 222.400 C 274.336 222.400,275.665 221.117,277.132 219.550 C 280.345 216.117,284.944 211.518,287.083 209.600 C 289.170 207.728,290.400 205.897,290.400 204.662 C 290.400 204.104,290.580 203.536,290.800 203.400 C 291.303 203.089,291.319 201.130,290.828 199.919 C 290.623 199.413,290.344 198.481,290.207 197.847 C 290.070 197.213,289.248 195.970,288.379 195.084 C 287.511 194.198,286.800 193.321,286.800 193.136 C 286.800 192.951,286.624 192.800,286.410 192.800 C 286.099 192.800,279.214 185.967,264.119 170.677 C 263.944 170.499,260.600 167.205,256.689 163.356 C 252.778 159.508,249.675 156.202,249.795 156.009 C 249.914 155.816,249.612 155.531,249.124 155.376 C 248.007 155.022,247.381 154.400,247.032 153.302 C 246.882 152.828,246.539 152.525,246.270 152.628 C 246.002 152.731,245.461 152.272,245.068 151.608 C 244.676 150.944,244.213 150.400,244.040 150.400 C 243.867 150.400,240.593 147.235,236.763 143.368 C 232.933 139.500,228.477 135.045,226.860 133.468 C 225.243 131.890,220.113 126.767,215.460 122.082 C 210.807 117.398,206.134 112.718,205.075 111.682 C 192.633 99.515,187.201 93.826,187.407 93.178 C 187.531 92.787,187.415 92.333,187.148 92.168 C 186.822 91.967,186.742 92.071,186.902 92.489 C 187.295 93.512,185.774 92.873,185.182 91.766 C 184.898 91.235,184.532 90.800,184.370 90.800 C 183.988 90.800,169.200 76.007,169.200 75.625 C 169.200 75.466,168.753 75.096,168.207 74.804 C 167.660 74.511,167.108 73.941,166.980 73.536 C 166.851 73.131,166.599 72.800,166.420 72.800 C 165.990 72.800,149.600 56.409,149.600 55.978 C 149.600 55.795,149.060 55.326,148.400 54.936 C 147.740 54.546,147.200 53.991,147.200 53.701 C 147.200 53.412,146.936 53.074,146.613 52.950 C 146.290 52.826,141.222 47.968,135.350 42.154 C 128.421 35.294,124.310 31.511,123.637 31.378 C 123.067 31.265,122.047 30.998,121.372 30.786 C 119.887 30.319,119.944 30.319,119.200 30.800 M135.800 40.800 C 136.883 41.900,137.860 42.800,137.970 42.800 C 138.080 42.800,137.283 41.900,136.200 40.800 C 135.117 39.700,134.140 38.800,134.030 38.800 C 133.920 38.800,134.717 39.700,135.800 40.800 M204.539 109.932 C 204.903 110.335,205.111 110.755,205.001 110.866 C 204.890 110.976,205.073 111.067,205.407 111.067 C 205.873 111.067,205.810 110.849,205.137 110.133 C 204.109 109.039,203.565 108.856,204.539 109.932 M268.200 173.200 C 269.059 174.080,269.852 174.800,269.962 174.800 C 270.072 174.800,269.459 174.080,268.600 173.200 C 267.741 172.320,266.948 171.600,266.838 171.600 C 266.728 171.600,267.341 172.320,268.200 173.200 M120.575 347.300 L 119.400 348.600 120.700 347.425 C 121.912 346.330,122.184 346.000,121.875 346.000 C 121.806 346.000,121.221 346.585,120.575 347.300"/><path id="path1" fill="#f4f4f4" fill-rule="evenodd" stroke="none" d="M118.000 30.628 C 116.772 31.316,117.964 31.461,119.239 30.779 C 119.781 30.489,120.428 30.485,121.313 30.765 C 122.021 30.989,123.096 31.272,123.703 31.394 C 124.430 31.541,126.640 33.474,130.203 37.083 C 133.171 40.090,135.600 42.410,135.600 42.239 C 135.600 42.068,134.385 40.691,132.900 39.179 C 131.415 37.667,129.348 35.523,128.306 34.415 C 127.264 33.307,126.231 32.400,126.009 32.400 C 125.788 32.400,125.382 32.040,125.107 31.600 C 124.774 31.066,124.174 30.800,123.304 30.800 C 122.587 30.800,122.000 30.655,122.000 30.478 C 122.000 29.928,119.052 30.038,118.000 30.628 M115.478 31.813 C 114.860 32.356,114.514 32.800,114.708 32.800 C 114.902 32.800,115.483 32.350,116.000 31.800 C 117.195 30.528,116.931 30.534,115.478 31.813 M112.384 34.686 C 111.684 35.723,111.392 36.339,111.735 36.054 C 112.363 35.533,114.110 32.800,113.815 32.800 C 113.728 32.800,113.084 33.649,112.384 34.686 M110.652 38.100 C 110.341 39.261,110.399 41.526,110.773 42.800 C 110.954 43.416,111.064 42.533,111.060 40.500 C 111.053 36.935,111.018 36.733,110.652 38.100 M136.000 42.641 C 136.000 42.922,137.078 44.000,137.359 44.000 C 137.789 44.000,137.124 42.856,136.569 42.643 C 136.256 42.523,136.000 42.522,136.000 42.641 M111.200 44.155 C 111.200 44.308,111.560 44.820,112.000 45.292 C 112.440 45.764,112.800 45.965,112.800 45.737 C 112.800 45.510,112.440 44.998,112.000 44.600 C 111.560 44.202,111.200 44.001,111.200 44.155 M138.637 44.740 C 138.517 44.934,138.762 45.404,139.182 45.783 C 139.911 46.443,139.935 46.436,139.724 45.631 C 139.469 44.654,138.952 44.231,138.637 44.740 M113.034 46.943 C 113.172 47.305,113.445 47.600,113.641 47.600 C 113.836 47.600,115.527 49.114,117.398 50.964 C 119.269 52.814,120.799 54.209,120.797 54.064 C 120.794 53.795,114.784 47.855,113.491 46.842 C 112.870 46.356,112.813 46.368,113.034 46.943 M140.800 47.378 C 140.800 47.728,146.040 52.730,146.654 52.965 C 146.954 53.081,147.200 53.412,147.200 53.701 C 147.200 53.991,147.740 54.546,148.400 54.936 C 149.060 55.326,149.600 55.782,149.600 55.948 C 149.600 56.260,157.103 64.000,157.405 64.000 C 157.498 64.000,157.424 63.595,157.241 63.100 C 157.058 62.605,156.723 62.200,156.497 62.200 C 155.879 62.200,150.404 56.736,149.985 55.700 C 149.784 55.205,149.388 54.800,149.105 54.800 C 148.821 54.800,148.412 54.395,148.195 53.900 C 147.978 53.405,147.425 52.835,146.966 52.634 C 146.508 52.432,145.968 51.893,145.766 51.435 C 145.565 50.978,144.914 50.372,144.319 50.089 C 143.725 49.806,142.915 49.167,142.519 48.668 C 141.765 47.718,140.800 46.994,140.800 47.378 M121.200 54.578 C 121.200 54.874,132.363 66.000,132.660 66.000 C 132.904 66.000,121.552 54.411,121.300 54.403 C 121.245 54.401,121.200 54.480,121.200 54.578 M161.912 68.627 C 164.252 70.922,166.297 72.800,166.456 72.800 C 166.616 72.800,166.851 73.131,166.980 73.536 C 167.108 73.941,167.660 74.511,168.207 74.804 C 168.753 75.096,169.200 75.457,169.200 75.606 C 169.200 75.756,169.560 76.293,170.000 76.800 C 170.455 77.325,170.800 77.497,170.800 77.199 C 170.800 76.912,170.080 75.991,169.200 75.154 C 168.320 74.317,167.600 73.439,167.600 73.203 C 167.600 72.968,167.285 72.656,166.900 72.510 C 166.078 72.199,165.617 71.761,164.676 70.400 C 164.296 69.850,163.830 69.400,163.642 69.400 C 163.101 69.400,159.974 66.287,159.613 65.388 C 159.434 64.942,158.920 64.549,158.472 64.515 C 157.909 64.473,158.969 65.740,161.912 68.627 M132.803 66.673 C 132.804 66.853,133.344 67.307,134.003 67.681 C 135.543 68.558,135.542 68.298,134.000 67.200 C 133.340 66.730,132.801 66.493,132.803 66.673 M136.903 70.500 C 140.139 73.597,141.043 74.217,138.342 71.487 C 136.879 70.009,135.558 68.800,135.405 68.800 C 135.252 68.800,135.926 69.565,136.903 70.500 M141.816 75.144 C 143.276 76.903,158.400 92.011,158.394 91.705 C 158.390 91.537,154.482 87.530,149.710 82.800 C 144.937 78.070,141.385 74.625,141.816 75.144 M172.000 78.591 C 174.705 81.564,179.702 86.431,179.873 86.260 C 179.980 86.153,179.517 85.576,178.845 84.977 C 178.172 84.378,177.736 83.688,177.875 83.444 C 178.014 83.200,177.994 83.120,177.830 83.267 C 177.467 83.593,175.022 81.282,174.663 80.275 C 174.522 79.876,174.233 79.656,174.023 79.786 C 173.812 79.916,173.447 79.661,173.211 79.220 C 172.975 78.779,172.381 78.210,171.891 77.955 C 171.046 77.515,171.052 77.548,172.000 78.591 M180.800 87.108 C 180.800 87.569,183.947 90.800,184.396 90.800 C 184.544 90.800,184.906 91.250,185.200 91.800 C 185.494 92.350,185.980 92.800,186.280 92.800 C 186.580 92.800,186.928 93.067,187.053 93.394 C 187.241 93.885,197.331 104.121,205.075 111.678 C 206.134 112.711,209.313 115.906,212.139 118.778 C 214.966 121.649,217.470 123.881,217.704 123.736 C 218.118 123.480,217.651 122.995,215.679 121.633 C 215.228 121.321,214.771 120.730,214.663 120.321 C 214.556 119.912,214.308 119.627,214.112 119.689 C 213.681 119.823,207.600 113.742,207.600 113.177 C 207.600 112.959,207.125 112.600,206.545 112.379 C 205.964 112.158,205.607 111.860,205.750 111.717 C 206.094 111.372,204.001 109.200,203.325 109.200 C 203.036 109.200,202.800 108.924,202.800 108.587 C 202.800 108.251,202.485 107.857,202.100 107.712 C 201.225 107.383,185.417 91.543,185.076 90.653 C 184.938 90.294,184.627 90.000,184.384 90.000 C 183.790 90.000,182.800 88.976,182.800 88.362 C 182.800 88.090,182.683 87.983,182.541 88.126 C 182.398 88.269,181.948 88.001,181.541 87.532 C 181.133 87.062,180.800 86.871,180.800 87.108 M159.600 92.966 C 160.150 93.608,162.805 96.322,165.500 98.997 C 168.195 101.672,170.400 104.073,170.400 104.331 C 170.400 104.589,170.567 104.800,170.772 104.800 C 170.977 104.800,175.660 109.294,181.180 114.788 C 186.699 120.281,191.040 124.466,190.826 124.088 C 190.612 123.709,183.274 116.290,174.519 107.600 C 165.764 98.910,159.050 92.325,159.600 92.966 M192.202 125.582 C 193.553 127.244,211.224 144.791,210.825 144.074 C 210.619 143.703,206.165 139.170,200.928 134.000 C 195.690 128.830,191.764 125.042,192.202 125.582 M219.200 125.781 C 220.368 127.077,222.748 129.466,226.856 133.468 C 228.475 135.045,232.933 139.500,236.763 143.368 C 240.593 147.235,243.867 150.400,244.040 150.400 C 244.213 150.400,244.673 150.939,245.062 151.598 C 245.452 152.257,246.040 152.752,246.371 152.698 C 246.701 152.644,247.042 152.947,247.129 153.372 C 247.333 154.373,248.000 155.020,249.219 155.400 C 250.195 155.705,250.196 155.702,249.438 154.853 C 249.019 154.384,248.477 154.000,248.233 154.000 C 247.989 154.000,247.612 153.595,247.395 153.100 C 247.178 152.605,246.606 152.027,246.125 151.816 C 245.643 151.604,245.165 151.109,245.062 150.716 C 244.959 150.322,244.577 150.000,244.214 150.000 C 243.850 150.000,243.664 149.820,243.800 149.600 C 243.936 149.380,243.767 149.200,243.424 149.200 C 243.081 149.200,242.800 148.900,242.800 148.533 C 242.800 148.167,242.678 147.988,242.530 148.137 C 242.178 148.489,240.400 146.818,240.400 146.135 C 240.400 145.846,239.680 145.156,238.800 144.600 C 237.920 144.044,237.200 143.317,237.200 142.982 C 237.200 142.648,236.885 142.258,236.500 142.115 C 235.717 141.825,234.400 140.460,234.400 139.939 C 234.400 139.752,234.130 139.600,233.800 139.600 C 233.470 139.600,233.200 139.324,233.200 138.987 C 233.200 138.651,232.885 138.256,232.500 138.110 C 231.564 137.755,230.800 136.970,230.800 136.362 C 230.800 136.090,230.702 135.964,230.583 136.084 C 230.307 136.360,227.600 133.750,227.600 133.207 C 227.600 132.983,227.448 132.800,227.261 132.800 C 226.740 132.800,225.375 131.483,225.085 130.700 C 224.942 130.315,224.580 130.000,224.280 130.000 C 223.979 130.000,222.736 128.944,221.516 127.654 C 219.276 125.285,217.347 123.724,219.200 125.781 M212.800 146.525 C 212.800 146.593,213.385 147.072,214.100 147.588 L 215.400 148.527 214.430 147.463 C 213.602 146.555,212.800 146.093,212.800 146.525 M215.200 148.906 C 215.200 148.994,215.965 149.674,216.900 150.417 C 217.835 151.160,218.346 151.452,218.036 151.065 C 217.451 150.337,215.200 148.623,215.200 148.906 M221.858 155.400 C 223.797 157.270,225.473 158.800,225.583 158.800 C 225.692 158.800,224.260 157.270,222.400 155.400 C 220.540 153.530,218.864 152.000,218.676 152.000 C 218.487 152.000,219.920 153.530,221.858 155.400 M249.600 156.115 C 249.600 156.332,261.402 168.181,263.884 170.456 C 264.278 170.817,266.535 173.087,268.900 175.501 C 271.265 177.915,273.200 179.749,273.200 179.577 C 273.200 179.404,272.525 178.574,271.700 177.732 C 270.875 176.889,269.881 175.705,269.491 175.100 C 269.101 174.495,268.516 174.000,268.191 174.000 C 267.866 174.000,267.600 173.724,267.600 173.387 C 267.600 173.051,267.285 172.656,266.900 172.510 C 266.030 172.181,265.200 171.382,265.200 170.875 C 265.200 170.664,264.790 170.223,264.289 169.895 C 263.149 169.148,260.742 166.721,260.167 165.739 C 259.929 165.333,259.344 164.822,258.867 164.605 C 258.390 164.388,258.000 163.979,258.000 163.695 C 258.000 163.412,257.565 163.015,257.032 162.812 C 256.500 162.610,255.825 161.956,255.532 161.359 C 255.240 160.762,254.643 160.077,254.206 159.837 C 253.769 159.597,253.133 159.130,252.794 158.800 C 251.000 157.057,249.600 155.881,249.600 156.115 M226.000 159.287 C 226.000 159.444,227.736 161.326,229.858 163.469 C 231.980 165.612,233.517 167.013,233.273 166.583 C 232.736 165.637,226.001 158.880,226.000 159.287 M234.418 167.764 C 235.560 169.264,266.801 200.355,266.799 199.990 C 266.799 199.885,259.382 192.420,250.318 183.400 C 241.253 174.380,234.099 167.344,234.418 167.764 M273.602 179.871 C 273.603 180.052,274.063 180.740,274.623 181.400 C 275.512 182.446,275.580 182.473,275.158 181.608 C 274.617 180.500,273.599 179.364,273.602 179.871 M276.638 183.295 C 277.852 184.720,282.101 188.832,282.228 188.705 C 282.393 188.541,276.466 182.400,276.143 182.400 C 275.996 182.400,276.219 182.803,276.638 183.295 M284.030 190.682 C 284.564 191.277,285.212 191.997,285.471 192.282 C 285.731 192.567,286.136 192.800,286.371 192.800 C 286.607 192.800,286.800 192.951,286.800 193.136 C 286.800 193.321,287.511 194.198,288.379 195.084 C 289.248 195.970,290.070 197.213,290.207 197.847 C 290.344 198.481,290.623 199.413,290.828 199.919 C 291.319 201.130,291.303 203.089,290.800 203.400 C 290.580 203.536,290.400 204.104,290.400 204.662 C 290.400 205.897,289.170 207.728,287.083 209.600 C 284.944 211.518,280.345 216.117,277.132 219.550 C 275.665 221.117,274.336 222.400,274.179 222.400 C 273.804 222.400,272.400 224.026,272.400 224.461 C 272.400 224.648,272.175 224.804,271.900 224.809 C 271.625 224.814,270.787 225.675,270.038 226.721 C 269.289 227.768,267.857 229.249,266.856 230.012 C 265.003 231.425,258.795 237.658,257.737 239.169 C 257.417 239.626,256.994 240.000,256.797 240.000 C 256.444 240.000,250.400 245.872,250.400 246.215 C 250.400 246.732,246.815 250.395,246.306 250.398 C 246.002 250.400,242.400 253.985,242.400 254.285 C 242.400 254.378,240.942 255.837,239.160 257.527 C 233.500 262.895,230.400 265.996,230.387 266.303 C 230.367 266.774,228.479 268.800,228.059 268.800 C 227.851 268.800,225.997 270.523,223.940 272.629 C 221.883 274.734,219.966 276.669,219.681 276.929 C 219.395 277.188,217.235 279.355,214.881 281.744 C 212.526 284.133,209.647 287.013,208.483 288.144 C 201.075 295.339,195.200 301.269,195.200 301.550 C 195.200 301.730,194.861 302.040,194.446 302.239 C 194.031 302.437,192.464 303.950,190.964 305.600 C 189.463 307.250,187.677 309.050,186.995 309.600 C 185.253 311.004,182.400 313.966,182.400 314.370 C 182.400 314.556,181.984 314.981,181.475 315.314 C 180.192 316.154,172.800 323.551,172.800 323.994 C 172.800 324.192,172.275 324.665,171.634 325.043 C 170.993 325.422,170.277 326.152,170.043 326.666 C 169.809 327.180,169.433 327.600,169.209 327.600 C 168.984 327.600,168.800 327.899,168.800 328.264 C 168.800 328.695,169.187 328.421,169.900 327.486 C 170.505 326.692,171.495 325.831,172.100 325.573 C 172.705 325.314,173.200 324.860,173.200 324.563 C 173.200 323.857,180.962 316.130,182.001 315.800 C 182.441 315.660,182.802 315.243,182.805 314.873 C 182.808 314.503,184.004 313.120,185.463 311.800 C 186.923 310.480,189.215 308.252,190.558 306.849 C 195.496 301.690,199.472 297.709,199.839 297.556 C 200.046 297.470,201.022 296.455,202.008 295.300 C 202.993 294.145,204.013 293.200,204.273 293.200 C 204.533 293.200,204.848 292.878,204.973 292.485 C 205.098 292.091,206.055 291.067,207.100 290.208 C 208.145 289.349,209.540 288.058,210.200 287.338 C 214.532 282.612,219.749 277.642,220.142 277.866 C 220.394 278.010,220.477 277.991,220.327 277.824 C 219.803 277.242,226.591 270.224,227.271 270.644 C 227.520 270.798,227.614 270.747,227.481 270.531 C 227.347 270.315,228.039 269.468,229.019 268.649 C 229.999 267.830,230.800 266.980,230.800 266.761 C 230.800 266.541,232.645 264.587,234.900 262.420 C 237.155 260.252,239.229 258.236,239.509 257.939 C 242.944 254.298,246.410 250.800,246.583 250.800 C 246.702 250.800,247.130 250.485,247.534 250.100 C 247.938 249.715,248.658 249.135,249.134 248.812 C 249.610 248.488,250.000 248.038,250.000 247.812 C 250.001 247.216,251.812 245.200,252.347 245.200 C 252.596 245.200,252.800 245.054,252.800 244.876 C 252.800 244.284,256.793 240.400,257.401 240.400 C 257.731 240.400,258.000 240.259,258.000 240.086 C 258.000 239.357,266.735 230.202,267.091 230.558 C 267.320 230.787,268.847 229.179,269.982 227.515 C 270.522 226.724,271.467 225.779,272.082 225.415 C 272.697 225.052,273.200 224.551,273.200 224.302 C 273.200 223.713,276.848 220.404,277.500 220.402 C 277.775 220.401,278.000 220.145,278.000 219.834 C 278.000 219.080,286.261 210.800,287.013 210.800 C 287.336 210.800,287.600 210.640,287.600 210.444 C 287.600 210.248,288.320 209.216,289.200 208.151 C 290.080 207.086,290.800 205.806,290.800 205.307 C 290.800 204.808,290.980 204.400,291.200 204.400 C 291.431 204.400,291.600 203.125,291.600 201.376 C 291.600 199.463,291.453 198.444,291.200 198.600 C 290.966 198.745,290.800 198.330,290.800 197.600 C 290.800 196.870,290.634 196.455,290.400 196.600 C 290.180 196.736,290.000 196.567,290.000 196.224 C 290.000 195.656,288.666 194.000,288.209 194.000 C 288.104 194.000,287.012 193.010,285.782 191.800 C 283.456 189.511,282.345 188.801,284.030 190.682 M265.600 204.268 C 264.744 205.140,264.720 205.226,265.433 204.865 C 266.372 204.390,267.483 203.187,266.949 203.224 C 266.757 203.237,266.150 203.707,265.600 204.268 M248.460 221.442 C 248.162 221.778,247.999 222.132,248.095 222.229 C 248.192 222.326,248.598 222.044,248.998 221.602 C 249.397 221.161,249.561 220.807,249.362 220.815 C 249.163 220.824,248.757 221.105,248.460 221.442 M244.072 225.803 C 243.061 226.966,242.916 227.534,243.822 226.782 C 244.427 226.280,245.371 224.800,245.086 224.800 C 245.008 224.800,244.552 225.251,244.072 225.803 M231.170 238.700 L 230.200 239.800 231.400 238.800 C 232.060 238.250,232.675 237.755,232.767 237.700 C 232.858 237.645,232.755 237.600,232.536 237.600 C 232.318 237.600,231.703 238.095,231.170 238.700 M220.886 249.054 C 220.383 249.574,220.130 250.000,220.324 250.000 C 220.748 250.000,222.197 248.455,221.964 248.251 C 221.874 248.172,221.389 248.533,220.886 249.054 M215.991 253.887 C 213.230 256.726,213.083 256.931,215.200 254.987 C 217.611 252.774,219.847 250.400,219.522 250.400 C 219.445 250.400,217.856 251.969,215.991 253.887 M206.855 263.000 C 206.154 263.770,205.687 264.400,205.817 264.400 C 205.947 264.400,206.648 263.770,207.374 263.000 C 208.100 262.230,208.567 261.600,208.412 261.600 C 208.256 261.600,207.555 262.230,206.855 263.000 M192.986 276.817 C 189.474 280.347,186.516 283.362,186.414 283.517 C 186.312 283.673,189.237 280.832,192.914 277.205 C 196.591 273.577,199.600 270.562,199.600 270.505 C 199.600 270.208,198.884 270.892,192.986 276.817 M184.801 284.998 C 184.286 285.548,183.939 286.064,184.032 286.146 C 184.124 286.228,184.619 285.778,185.130 285.147 C 186.276 283.735,186.074 283.644,184.801 284.998 M178.000 291.887 L 172.600 297.363 177.399 292.782 C 181.702 288.674,183.897 286.390,183.529 286.405 C 183.458 286.408,180.970 288.875,178.000 291.887 M169.588 300.300 L 167.000 303.000 169.700 300.412 C 172.208 298.007,172.583 297.600,172.288 297.600 C 172.227 297.600,171.012 298.815,169.588 300.300 M158.000 311.800 C 156.361 313.450,155.110 314.800,155.220 314.800 C 155.330 314.800,156.761 313.450,158.400 311.800 C 160.039 310.150,161.290 308.800,161.180 308.800 C 161.070 308.800,159.639 310.150,158.000 311.800 M149.200 320.600 C 147.561 322.250,146.310 323.600,146.420 323.600 C 146.530 323.600,147.961 322.250,149.600 320.600 C 151.239 318.950,152.490 317.600,152.380 317.600 C 152.270 317.600,150.839 318.950,149.200 320.600 M143.200 326.665 C 141.726 328.180,141.636 328.345,142.706 327.577 C 143.766 326.817,145.536 324.777,145.109 324.808 C 145.049 324.812,144.190 325.648,143.200 326.665 M135.050 334.757 C 131.785 338.033,129.004 340.868,128.871 341.057 C 128.737 341.245,131.457 338.612,134.914 335.205 C 138.371 331.798,141.200 328.963,141.200 328.905 C 141.200 328.619,140.564 329.224,135.050 334.757 M167.033 329.646 C 165.299 331.010,162.419 334.157,162.409 334.700 C 162.404 334.975,162.150 335.200,161.843 335.200 C 161.230 335.200,157.200 339.047,157.200 339.633 C 157.200 339.835,156.930 340.000,156.600 340.000 C 156.270 340.000,155.999 340.135,155.997 340.300 C 155.992 340.723,152.129 344.799,151.729 344.803 C 151.548 344.804,150.972 345.434,150.448 346.203 C 149.925 346.971,149.340 347.600,149.148 347.600 C 148.957 347.600,148.800 347.870,148.800 348.200 C 148.800 348.530,148.570 348.800,148.289 348.800 C 148.008 348.800,147.496 349.115,147.151 349.500 C 146.807 349.885,146.137 350.465,145.662 350.788 C 145.188 351.112,144.811 351.742,144.825 352.188 C 144.849 352.940,144.878 352.933,145.216 352.091 C 145.417 351.591,145.900 351.063,146.290 350.917 C 146.681 350.772,147.235 350.326,147.523 349.926 C 147.810 349.527,148.305 349.200,148.623 349.200 C 148.940 349.200,149.200 348.940,149.200 348.623 C 149.200 348.305,149.515 347.807,149.900 347.517 C 150.285 347.226,150.798 346.631,151.041 346.194 C 151.283 345.757,151.868 345.342,152.341 345.272 C 152.813 345.202,153.200 344.961,153.200 344.737 C 153.200 343.901,161.395 335.600,162.219 335.600 C 162.539 335.600,162.800 335.463,162.800 335.296 C 162.800 335.129,163.207 334.544,163.704 333.996 C 164.201 333.448,164.925 332.505,165.313 331.900 C 165.701 331.295,166.264 330.800,166.563 330.800 C 166.863 330.800,167.403 330.350,167.763 329.800 C 168.563 328.580,168.425 328.551,167.033 329.646 M122.200 347.698 C 118.900 351.046,117.280 352.766,118.600 351.520 C 123.667 346.736,128.798 341.600,128.505 341.605 C 128.337 341.608,125.500 344.349,122.200 347.698 M142.515 354.100 C 141.848 354.815,139.965 356.662,138.330 358.204 C 136.696 359.747,135.239 361.322,135.092 361.704 C 134.945 362.087,134.663 362.400,134.464 362.400 C 134.088 362.400,131.094 365.252,128.976 367.627 C 126.998 369.846,124.327 372.000,123.555 372.000 C 123.160 372.000,122.379 372.209,121.819 372.464 C 120.541 373.047,116.612 372.236,115.374 371.135 C 114.920 370.731,114.412 370.400,114.246 370.400 C 113.845 370.400,112.802 369.346,112.791 368.929 C 112.786 368.748,112.430 368.150,112.000 367.600 C 111.570 367.050,111.211 366.240,111.203 365.800 C 111.195 365.360,111.004 364.730,110.779 364.400 C 110.486 363.970,110.447 364.243,110.642 365.364 C 111.103 368.025,114.780 372.400,116.555 372.400 C 116.884 372.400,117.264 372.580,117.400 372.800 C 117.536 373.020,118.907 373.200,120.447 373.200 C 122.089 373.200,123.151 373.045,123.015 372.825 C 122.888 372.618,123.462 372.393,124.292 372.325 C 125.121 372.256,125.811 372.020,125.825 371.800 C 125.857 371.302,133.297 363.817,134.626 362.946 C 135.162 362.595,135.600 362.133,135.600 361.919 C 135.600 361.705,137.625 359.567,140.100 357.168 C 142.575 354.769,144.404 352.804,144.164 352.803 C 143.925 352.801,143.183 353.385,142.515 354.100 M113.918 355.706 C 112.114 357.459,110.395 360.455,110.406 361.826 C 110.411 362.472,110.476 362.501,110.800 362.000 C 111.013 361.670,111.191 361.030,111.194 360.579 C 111.201 359.642,113.222 356.742,115.000 355.119 C 115.660 354.516,116.082 354.018,115.937 354.012 C 115.792 354.005,114.883 354.768,113.918 355.706"/><path id="path2" fill="#e4e4e4" fill-rule="evenodd" stroke="none" d="M118.200 29.600 C 118.064 29.820,117.496 30.000,116.938 30.000 C 114.815 30.000,110.000 34.477,110.000 36.451 C 110.000 37.057,109.820 37.664,109.600 37.800 C 109.095 38.112,109.075 41.779,109.574 42.705 C 109.779 43.087,110.183 43.985,110.471 44.700 C 110.760 45.415,111.131 46.000,111.298 46.000 C 111.464 46.000,111.600 46.255,111.600 46.566 C 111.600 46.877,113.715 49.204,116.300 51.736 C 118.885 54.269,121.241 56.579,121.535 56.870 C 121.830 57.162,154.471 89.850,194.071 129.511 L 266.071 201.622 227.289 240.383 C 205.959 261.701,188.399 279.426,188.266 279.772 C 188.134 280.117,187.831 280.400,187.594 280.400 C 187.038 280.400,185.440 281.998,185.093 282.901 C 184.946 283.285,184.592 283.600,184.307 283.600 C 184.023 283.600,183.434 284.095,182.999 284.700 C 182.565 285.305,181.619 286.340,180.898 287.000 C 177.297 290.297,127.649 340.095,127.453 340.606 C 127.328 340.933,126.994 341.213,126.713 341.229 C 126.431 341.245,124.772 342.865,123.027 344.829 C 121.282 346.793,119.700 348.400,119.513 348.400 C 119.096 348.400,113.941 353.670,112.471 355.600 C 111.884 356.370,111.289 357.090,111.149 357.200 C 108.627 359.170,108.732 369.200,111.274 369.200 C 111.453 369.200,111.600 369.445,111.600 369.743 C 111.600 370.454,115.745 373.200,116.817 373.200 C 117.274 373.200,117.536 373.020,117.400 372.800 C 117.264 372.580,116.884 372.400,116.555 372.400 C 114.231 372.400,110.825 367.649,110.517 363.977 C 110.171 359.850,110.884 358.734,118.896 350.871 C 122.634 347.202,127.337 342.522,129.346 340.470 C 131.356 338.419,134.769 334.999,136.931 332.870 C 139.093 330.742,152.683 317.155,167.131 302.679 C 181.579 288.202,194.724 275.062,196.343 273.479 C 207.532 262.536,268.000 201.861,268.000 201.578 C 268.000 201.384,266.443 199.735,264.539 197.913 C 262.636 196.091,240.858 174.395,216.143 149.700 C 191.429 125.005,171.026 104.800,170.804 104.800 C 170.582 104.800,170.400 104.603,170.400 104.362 C 170.400 103.792,133.807 67.200,133.236 67.200 C 132.996 67.200,132.800 67.016,132.800 66.791 C 132.800 66.266,114.171 47.600,113.647 47.600 C 113.431 47.600,113.150 47.272,113.022 46.871 C 112.895 46.469,112.423 45.746,111.973 45.263 C 110.756 43.957,110.120 40.428,110.706 38.236 C 111.180 36.463,113.383 32.800,113.974 32.800 C 114.149 32.800,114.799 32.401,115.419 31.913 C 116.039 31.426,116.904 30.972,117.342 30.905 C 117.779 30.839,118.358 30.601,118.628 30.377 C 119.188 29.912,122.000 29.999,122.000 30.482 C 122.000 30.657,122.587 30.800,123.304 30.800 C 124.174 30.800,124.774 31.066,125.107 31.600 C 125.382 32.040,125.788 32.400,126.009 32.400 C 126.231 32.400,127.264 33.305,128.306 34.412 C 132.633 39.009,136.471 42.800,136.797 42.800 C 136.989 42.800,137.260 43.160,137.400 43.600 C 137.540 44.041,137.998 44.585,138.418 44.810 C 139.150 45.201,139.159 44.237,138.429 43.600 C 138.303 43.489,137.142 42.229,135.849 40.800 C 131.501 35.993,127.048 31.600,126.522 31.600 C 126.235 31.600,125.999 31.465,125.997 31.300 C 125.992 30.857,123.979 30.000,122.944 30.000 C 122.451 30.000,121.936 29.820,121.800 29.600 C 121.664 29.380,120.854 29.200,120.000 29.200 C 119.146 29.200,118.336 29.380,118.200 29.600 M139.600 45.600 C 139.600 45.820,140.005 46.370,140.500 46.822 C 140.995 47.274,141.976 48.213,142.681 48.908 C 143.385 49.603,144.077 50.056,144.218 49.915 C 144.457 49.676,140.271 45.200,139.809 45.200 C 139.694 45.200,139.600 45.380,139.600 45.600 M150.006 55.817 C 150.009 56.028,151.549 57.727,153.429 59.593 C 155.308 61.459,156.711 62.633,156.545 62.202 C 156.380 61.771,155.679 60.874,154.988 60.209 C 150.757 56.139,150.001 55.472,150.006 55.817 M157.206 63.100 C 157.225 64.048,159.031 65.397,159.426 64.758 C 159.615 64.453,159.555 64.381,159.262 64.562 C 159.008 64.719,158.800 64.644,158.800 64.395 C 158.800 63.927,157.831 62.800,157.429 62.800 C 157.303 62.800,157.203 62.935,157.206 63.100 M159.602 65.497 C 159.608 66.233,163.927 70.041,164.220 69.568 C 164.387 69.297,164.361 69.170,164.162 69.284 C 163.963 69.398,163.170 68.729,162.400 67.797 C 160.981 66.080,159.598 64.943,159.602 65.497 M164.812 70.598 C 165.822 71.971,166.429 72.504,166.686 72.248 C 166.822 72.111,166.858 71.955,166.767 71.900 C 166.675 71.845,166.065 71.350,165.412 70.800 C 164.532 70.060,164.377 70.007,164.812 70.598 M167.600 73.367 C 167.600 73.513,168.320 74.317,169.200 75.154 C 170.080 75.991,170.800 76.884,170.800 77.138 C 170.800 77.392,171.001 77.600,171.246 77.600 C 171.491 77.600,172.282 78.244,173.003 79.031 C 173.976 80.094,174.393 80.326,174.621 79.931 C 174.790 79.639,174.795 79.519,174.632 79.666 C 174.469 79.812,173.675 79.200,172.868 78.306 C 170.002 75.133,167.600 72.881,167.600 73.367 M174.800 80.666 C 174.800 80.812,175.881 81.997,177.203 83.298 C 178.525 84.600,179.802 86.029,180.040 86.475 C 180.335 87.025,180.605 87.155,180.881 86.879 C 181.313 86.447,178.724 83.600,177.899 83.600 C 177.661 83.600,177.575 83.492,177.707 83.360 C 177.839 83.228,177.335 82.508,176.587 81.760 C 175.244 80.418,174.800 80.146,174.800 80.666 M181.200 87.029 C 181.200 87.451,182.302 88.364,182.533 88.133 C 182.659 88.008,182.513 87.656,182.210 87.352 C 181.633 86.776,181.200 86.637,181.200 87.029 M182.800 88.629 C 182.800 89.053,184.036 90.097,184.267 89.867 C 184.392 89.741,184.217 89.360,183.876 89.019 C 183.241 88.384,182.800 88.224,182.800 88.629 M185.200 91.029 C 185.200 91.453,186.436 92.497,186.667 92.267 C 186.792 92.141,186.617 91.760,186.276 91.419 C 185.641 90.784,185.200 90.624,185.200 91.029 M187.600 93.412 C 187.600 93.801,201.636 107.697,201.831 107.502 C 202.006 107.328,188.093 93.200,187.747 93.200 C 187.666 93.200,187.600 93.295,187.600 93.412 M205.626 111.831 C 206.154 112.468,206.800 112.586,206.800 112.047 C 206.800 111.852,206.430 111.596,205.977 111.478 C 205.302 111.302,205.239 111.365,205.626 111.831 M207.600 113.551 C 207.600 114.053,208.774 114.960,209.057 114.676 C 209.188 114.545,209.017 114.160,208.676 113.819 C 207.981 113.124,207.600 113.029,207.600 113.551 M210.412 116.186 C 211.725 117.942,214.408 120.549,214.133 119.801 C 213.837 118.999,213.152 118.258,210.989 116.400 C 210.186 115.710,210.007 115.644,210.412 116.186 M214.800 120.653 C 214.800 121.013,216.452 122.400,216.879 122.400 C 217.076 122.400,216.786 121.950,216.236 121.400 C 215.239 120.402,214.800 120.174,214.800 120.653 M217.605 124.009 C 217.838 124.444,218.193 124.800,218.394 124.800 C 218.596 124.800,219.885 125.970,221.260 127.400 C 222.635 128.830,224.000 130.000,224.293 130.000 C 224.586 130.000,224.942 130.315,225.085 130.700 C 225.378 131.489,226.742 132.800,227.270 132.800 C 227.860 132.800,226.364 130.829,225.082 129.916 C 224.415 129.441,222.684 127.863,221.235 126.408 C 218.454 123.615,216.814 122.532,217.605 124.009 M227.600 133.438 C 227.600 133.933,230.430 136.275,230.633 135.947 C 230.763 135.737,230.654 135.307,230.392 134.991 C 229.904 134.402,227.600 133.121,227.600 133.438 M230.800 136.625 C 230.800 136.925,231.873 138.000,232.171 138.000 C 232.680 138.000,232.351 137.362,231.600 136.893 C 231.160 136.618,230.800 136.498,230.800 136.625 M234.400 139.843 C 234.400 140.453,235.954 142.179,236.243 141.890 C 236.374 141.759,236.013 141.147,235.440 140.530 C 234.868 139.913,234.400 139.604,234.400 139.843 M237.200 143.177 C 237.200 143.588,238.774 144.800,239.307 144.800 C 239.488 144.800,239.186 144.350,238.636 143.800 C 237.568 142.732,237.200 142.572,237.200 143.177 M240.400 146.330 C 240.400 146.983,242.309 148.471,242.581 148.030 C 242.932 147.462,242.499 146.800,241.776 146.800 C 241.459 146.800,241.200 146.620,241.200 146.400 C 241.200 146.180,241.020 146.000,240.800 146.000 C 240.580 146.000,240.400 146.149,240.400 146.330 M250.000 155.875 C 250.000 156.370,253.622 159.711,253.880 159.454 C 253.990 159.343,253.473 158.656,252.730 157.927 C 250.846 156.075,250.000 155.439,250.000 155.875 M255.600 161.489 C 255.600 161.992,256.743 162.990,257.012 162.721 C 257.118 162.615,256.844 162.202,256.402 161.802 C 255.961 161.403,255.600 161.262,255.600 161.489 M260.400 166.160 C 260.400 166.446,263.353 169.282,264.289 169.895 C 264.790 170.223,265.200 170.664,265.200 170.875 C 265.200 171.382,266.030 172.181,266.900 172.510 C 267.285 172.656,267.600 173.051,267.600 173.387 C 267.600 173.724,267.866 174.000,268.191 174.000 C 268.516 174.000,269.101 174.495,269.491 175.100 C 269.881 175.705,270.875 176.889,271.700 177.732 C 272.525 178.574,273.200 179.459,273.200 179.698 C 273.200 179.938,273.311 180.022,273.448 179.886 C 273.749 179.584,274.508 180.306,275.151 181.508 C 275.413 181.999,275.808 182.400,276.027 182.400 C 276.246 182.400,277.725 183.781,279.313 185.469 C 280.901 187.157,282.470 188.783,282.800 189.082 C 283.130 189.382,284.439 190.610,285.709 191.813 C 286.979 193.016,288.129 194.000,288.265 194.000 C 288.401 194.000,288.742 194.315,289.023 194.699 C 289.304 195.084,289.668 195.266,289.830 195.103 C 289.992 194.941,289.692 194.377,289.163 193.851 C 288.633 193.325,286.310 190.958,284.000 188.592 C 281.690 186.226,279.395 184.024,278.900 183.699 C 278.405 183.374,278.000 182.898,278.000 182.640 C 278.000 182.383,277.460 181.854,276.800 181.464 C 276.140 181.074,275.600 180.495,275.600 180.177 C 275.600 179.860,275.451 179.600,275.268 179.600 C 274.713 179.600,270.800 175.833,270.800 175.299 C 270.800 175.025,270.575 174.796,270.300 174.791 C 269.710 174.780,266.249 171.552,265.340 170.165 C 264.993 169.634,264.536 169.200,264.325 169.200 C 263.818 169.200,263.019 168.370,262.690 167.500 C 262.544 167.115,262.149 166.800,261.813 166.800 C 261.476 166.800,261.200 166.620,261.200 166.400 C 261.200 166.180,261.020 166.000,260.800 166.000 C 260.580 166.000,260.400 166.072,260.400 166.160 M290.800 197.800 C 290.800 198.396,290.972 198.741,291.200 198.600 C 291.420 198.464,291.600 198.104,291.600 197.800 C 291.600 197.496,291.420 197.136,291.200 197.000 C 290.972 196.859,290.800 197.204,290.800 197.800 M291.606 201.700 C 291.603 203.229,291.427 204.400,291.200 204.400 C 290.980 204.400,290.800 204.808,290.800 205.307 C 290.800 205.806,290.080 207.086,289.200 208.151 C 288.320 209.216,287.600 210.248,287.600 210.444 C 287.600 210.640,287.336 210.800,287.013 210.800 C 286.261 210.800,278.000 219.080,278.000 219.834 C 278.000 220.145,277.775 220.401,277.500 220.402 C 276.848 220.404,273.200 223.713,273.200 224.302 C 273.200 224.551,272.697 225.052,272.082 225.415 C 271.467 225.779,270.522 226.724,269.982 227.515 C 268.847 229.179,267.320 230.787,267.091 230.558 C 266.735 230.202,258.000 239.357,258.000 240.086 C 258.000 240.259,257.731 240.400,257.401 240.400 C 256.793 240.400,252.800 244.284,252.800 244.876 C 252.800 245.054,252.596 245.200,252.347 245.200 C 251.812 245.200,250.001 247.216,250.000 247.812 C 250.000 248.038,249.610 248.488,249.134 248.812 C 248.658 249.135,247.938 249.715,247.534 250.100 C 247.130 250.485,246.702 250.800,246.583 250.800 C 246.410 250.800,242.944 254.298,239.509 257.939 C 239.229 258.236,237.155 260.252,234.900 262.420 C 232.645 264.587,230.800 266.543,230.800 266.766 C 230.800 266.989,229.675 268.104,228.300 269.244 C 226.925 270.384,224.720 272.483,223.400 273.908 C 222.080 275.332,220.477 276.971,219.837 277.549 C 218.601 278.667,212.208 285.164,210.200 287.344 C 209.540 288.061,208.145 289.349,207.100 290.208 C 206.055 291.067,205.098 292.091,204.973 292.485 C 204.848 292.878,204.533 293.200,204.273 293.200 C 204.013 293.200,202.993 294.145,202.008 295.300 C 201.022 296.455,200.046 297.470,199.839 297.556 C 199.472 297.709,195.496 301.690,190.558 306.849 C 189.215 308.252,186.923 310.480,185.463 311.800 C 184.004 313.120,182.808 314.503,182.805 314.873 C 182.802 315.243,182.441 315.660,182.001 315.800 C 181.108 316.083,173.200 323.809,173.200 324.399 C 173.200 324.606,173.461 324.675,173.780 324.552 C 174.696 324.201,220.400 278.323,220.183 277.972 C 220.076 277.799,220.393 277.529,220.887 277.372 C 221.920 277.045,227.456 271.294,227.290 270.721 C 227.230 270.512,227.341 270.440,227.537 270.561 C 227.896 270.783,258.127 240.788,258.853 239.491 C 259.066 239.111,259.378 238.800,259.547 238.800 C 260.123 238.800,290.106 208.636,290.854 207.304 C 291.264 206.573,291.600 205.621,291.600 205.188 C 291.600 204.755,291.780 204.400,292.000 204.400 C 292.513 204.400,292.513 200.393,292.000 199.600 C 291.728 199.180,291.610 199.809,291.606 201.700 M171.800 325.687 C 171.360 325.942,170.701 326.521,170.336 326.975 C 168.778 328.910,166.860 330.800,166.455 330.800 C 166.215 330.800,165.701 331.295,165.313 331.900 C 164.925 332.505,164.201 333.448,163.704 333.996 C 163.207 334.544,162.800 335.129,162.800 335.296 C 162.800 335.463,162.539 335.600,162.219 335.600 C 161.395 335.600,153.200 343.901,153.200 344.737 C 153.200 344.961,152.813 345.202,152.341 345.272 C 151.868 345.342,151.283 345.757,151.041 346.194 C 150.798 346.631,150.285 347.226,149.900 347.517 C 149.515 347.807,149.200 348.305,149.200 348.623 C 149.200 348.940,148.940 349.200,148.623 349.200 C 148.305 349.200,147.810 349.527,147.523 349.926 C 147.235 350.326,146.681 350.772,146.291 350.917 C 145.901 351.063,145.466 351.483,145.325 351.852 C 145.183 352.220,144.414 353.112,143.615 353.834 C 140.269 356.857,135.600 361.571,135.600 361.926 C 135.600 362.136,135.195 362.574,134.700 362.899 C 133.324 363.801,125.258 371.924,125.498 372.165 C 125.992 372.659,152.870 346.405,154.076 344.250 C 154.276 343.892,154.592 343.600,154.778 343.600 C 155.061 343.600,165.090 333.713,171.583 327.034 C 173.327 325.241,173.404 324.759,171.800 325.687 M123.000 372.800 C 123.136 373.020,123.586 373.200,124.000 373.200 C 124.414 373.200,124.864 373.020,125.000 372.800 C 125.145 372.566,124.730 372.400,124.000 372.400 C 123.270 372.400,122.855 372.566,123.000 372.800 M118.600 373.600 C 118.915 374.110,121.212 374.110,122.000 373.600 C 122.429 373.323,121.995 373.211,120.476 373.206 C 119.161 373.202,118.447 373.352,118.600 373.600"/><path id="path3" fill="#f4fc100" fill-rule="evenodd" stroke="none"/><path id="path4" fill="#f4fc100" fill-rule="evenodd" stroke="none"/></g></svg>